<mxfile host="app.diagrams.net" modified="2021-07-28T09:04:43.945Z" agent="5.0 (Windows NT 10.0; Win64; x64) AppleWebKit/537.36 (KHTML, like Gecko) Chrome/91.0.4472.124 Safari/537.36" etag="efhru3Fxo4U0V8UOjf9y" version="14.8.5" type="github">
  <diagram id="62IyV_12R5njY14IpWBX" name="Page-1">
    <mxGraphModel dx="942" dy="642" grid="1" gridSize="10" guides="1" tooltips="1" connect="1" arrows="1" fold="1" page="1" pageScale="1" pageWidth="827" pageHeight="1169" math="0" shadow="0">
      <root>
        <mxCell id="0" />
        <mxCell id="1" parent="0" />
        <mxCell id="McXTLYsJjZo8j3f7QUZY-3" value="" style="edgeStyle=orthogonalEdgeStyle;rounded=0;orthogonalLoop=1;jettySize=auto;html=1;" edge="1" parent="1" source="McXTLYsJjZo8j3f7QUZY-1" target="McXTLYsJjZo8j3f7QUZY-2">
          <mxGeometry relative="1" as="geometry" />
        </mxCell>
        <mxCell id="McXTLYsJjZo8j3f7QUZY-1" value="hmb cluster ls" style="text;html=1;strokeColor=none;fillColor=none;align=center;verticalAlign=middle;whiteSpace=wrap;rounded=0;" vertex="1" parent="1">
          <mxGeometry x="370" y="20" width="80" height="20" as="geometry" />
        </mxCell>
        <mxCell id="McXTLYsJjZo8j3f7QUZY-5" value="" style="edgeStyle=orthogonalEdgeStyle;rounded=0;orthogonalLoop=1;jettySize=auto;html=1;" edge="1" parent="1" source="McXTLYsJjZo8j3f7QUZY-2" target="McXTLYsJjZo8j3f7QUZY-4">
          <mxGeometry relative="1" as="geometry" />
        </mxCell>
        <mxCell id="McXTLYsJjZo8j3f7QUZY-6" style="edgeStyle=orthogonalEdgeStyle;rounded=0;orthogonalLoop=1;jettySize=auto;html=1;entryX=1;entryY=0.5;entryDx=0;entryDy=0;" edge="1" parent="1" source="McXTLYsJjZo8j3f7QUZY-2" target="McXTLYsJjZo8j3f7QUZY-1">
          <mxGeometry relative="1" as="geometry">
            <Array as="points">
              <mxPoint x="570" y="120" />
              <mxPoint x="570" y="30" />
            </Array>
          </mxGeometry>
        </mxCell>
        <mxCell id="McXTLYsJjZo8j3f7QUZY-2" value="GetItemList(i item) error&lt;br&gt;设置请求信息Request" style="whiteSpace=wrap;html=1;align=center;" vertex="1" parent="1">
          <mxGeometry x="340" y="90" width="140" height="60" as="geometry" />
        </mxCell>
        <mxCell id="McXTLYsJjZo8j3f7QUZY-10" value="" style="edgeStyle=orthogonalEdgeStyle;rounded=0;orthogonalLoop=1;jettySize=auto;html=1;" edge="1" parent="1" source="McXTLYsJjZo8j3f7QUZY-4" target="McXTLYsJjZo8j3f7QUZY-9">
          <mxGeometry relative="1" as="geometry" />
        </mxCell>
        <mxCell id="McXTLYsJjZo8j3f7QUZY-13" value="" style="edgeStyle=orthogonalEdgeStyle;rounded=0;orthogonalLoop=1;jettySize=auto;html=1;" edge="1" parent="1" source="McXTLYsJjZo8j3f7QUZY-4" target="McXTLYsJjZo8j3f7QUZY-12">
          <mxGeometry relative="1" as="geometry" />
        </mxCell>
        <mxCell id="McXTLYsJjZo8j3f7QUZY-4" value="发送请求" style="ellipse;whiteSpace=wrap;html=1;" vertex="1" parent="1">
          <mxGeometry x="350" y="200" width="120" height="60" as="geometry" />
        </mxCell>
        <mxCell id="McXTLYsJjZo8j3f7QUZY-7" value="出错：返回错误" style="text;html=1;strokeColor=none;fillColor=none;align=center;verticalAlign=middle;whiteSpace=wrap;rounded=0;" vertex="1" parent="1">
          <mxGeometry x="570" y="70" width="90" height="20" as="geometry" />
        </mxCell>
        <mxCell id="McXTLYsJjZo8j3f7QUZY-9" value="解析错误，输出错误信息&lt;br&gt;(c *Cluster) output(result interface{},Type int) error&lt;br&gt;-------&amp;gt;c.outPutErr(result)" style="whiteSpace=wrap;html=1;" vertex="1" parent="1">
          <mxGeometry x="50" y="280" width="270" height="120" as="geometry" />
        </mxCell>
        <mxCell id="McXTLYsJjZo8j3f7QUZY-11" value="异常" style="text;html=1;strokeColor=none;fillColor=none;align=center;verticalAlign=middle;whiteSpace=wrap;rounded=0;" vertex="1" parent="1">
          <mxGeometry x="240" y="200" width="40" height="20" as="geometry" />
        </mxCell>
        <mxCell id="McXTLYsJjZo8j3f7QUZY-15" style="edgeStyle=orthogonalEdgeStyle;rounded=0;orthogonalLoop=1;jettySize=auto;html=1;entryX=1;entryY=0.5;entryDx=0;entryDy=0;" edge="1" parent="1" source="McXTLYsJjZo8j3f7QUZY-12" target="McXTLYsJjZo8j3f7QUZY-2">
          <mxGeometry relative="1" as="geometry">
            <Array as="points">
              <mxPoint x="710" y="340" />
              <mxPoint x="710" y="120" />
            </Array>
          </mxGeometry>
        </mxCell>
        <mxCell id="McXTLYsJjZo8j3f7QUZY-18" value="" style="edgeStyle=orthogonalEdgeStyle;rounded=0;orthogonalLoop=1;jettySize=auto;html=1;" edge="1" parent="1" source="McXTLYsJjZo8j3f7QUZY-12" target="McXTLYsJjZo8j3f7QUZY-17">
          <mxGeometry relative="1" as="geometry" />
        </mxCell>
        <mxCell id="McXTLYsJjZo8j3f7QUZY-12" value="获取对应命令的相关函数：i.getResult(LIST)&lt;br&gt;解析请求体：json.Unmarshal(rep.Body,&amp;amp;msg)" style="whiteSpace=wrap;html=1;" vertex="1" parent="1">
          <mxGeometry x="480" y="280" width="210" height="120" as="geometry" />
        </mxCell>
        <mxCell id="McXTLYsJjZo8j3f7QUZY-14" value="正常" style="text;html=1;strokeColor=none;fillColor=none;align=center;verticalAlign=middle;whiteSpace=wrap;rounded=0;" vertex="1" parent="1">
          <mxGeometry x="530" y="200" width="40" height="20" as="geometry" />
        </mxCell>
        <mxCell id="McXTLYsJjZo8j3f7QUZY-16" value="&lt;span style=&quot;color: rgb(0, 0, 0); font-family: helvetica; font-size: 12px; font-style: normal; font-weight: 400; letter-spacing: normal; text-align: center; text-indent: 0px; text-transform: none; word-spacing: 0px; background-color: rgb(248, 249, 250); display: inline; float: none;&quot;&gt;出错：返回错误&lt;/span&gt;" style="text;whiteSpace=wrap;html=1;" vertex="1" parent="1">
          <mxGeometry x="710" y="190" width="110" height="30" as="geometry" />
        </mxCell>
        <mxCell id="McXTLYsJjZo8j3f7QUZY-19" style="edgeStyle=orthogonalEdgeStyle;rounded=0;orthogonalLoop=1;jettySize=auto;html=1;entryX=1;entryY=0.5;entryDx=0;entryDy=0;" edge="1" parent="1" source="McXTLYsJjZo8j3f7QUZY-17" target="McXTLYsJjZo8j3f7QUZY-2">
          <mxGeometry relative="1" as="geometry">
            <Array as="points">
              <mxPoint x="800" y="540" />
              <mxPoint x="800" y="120" />
            </Array>
          </mxGeometry>
        </mxCell>
        <mxCell id="McXTLYsJjZo8j3f7QUZY-22" style="edgeStyle=orthogonalEdgeStyle;rounded=0;orthogonalLoop=1;jettySize=auto;html=1;" edge="1" parent="1" source="McXTLYsJjZo8j3f7QUZY-17" target="McXTLYsJjZo8j3f7QUZY-21">
          <mxGeometry relative="1" as="geometry" />
        </mxCell>
        <mxCell id="McXTLYsJjZo8j3f7QUZY-17" value="输出结果信息&lt;br&gt;(c *Cluster) output(result interface{},Type int) error&lt;br&gt;-------&amp;gt;c.outPutList(result)" style="whiteSpace=wrap;html=1;" vertex="1" parent="1">
          <mxGeometry x="360" y="510" width="285" height="110" as="geometry" />
        </mxCell>
        <mxCell id="McXTLYsJjZo8j3f7QUZY-20" value="&lt;span style=&quot;color: rgb(0, 0, 0); font-family: helvetica; font-size: 12px; font-style: normal; font-weight: 400; letter-spacing: normal; text-align: center; text-indent: 0px; text-transform: none; word-spacing: 0px; background-color: rgb(248, 249, 250); display: inline; float: none;&quot;&gt;出错：返回错误&lt;/span&gt;" style="text;whiteSpace=wrap;html=1;" vertex="1" parent="1">
          <mxGeometry x="800" y="400" width="110" height="30" as="geometry" />
        </mxCell>
        <mxCell id="McXTLYsJjZo8j3f7QUZY-21" value="" style="shape=image;verticalLabelPosition=bottom;labelBackgroundColor=#ffffff;verticalAlign=top;aspect=fixed;imageAspect=0;image=data:image/png,iVBORw0KGgoAAAANSUhEUgAABD8AAAE2CAYAAABm/jkhAAAgAElEQVR4Aey9W4tlR3rnPR/Cdw0LDC1ojNBFN7LNCPpC09AI5LGvukcH0nUYu6HAMAiMVOoxwpm8RTHVMNSFrqR0jqYoGhd6X3dWM6oCmUGgVk2noTR1sfGFyQ/Rn6DjJQ5PxBOHddinzLV3/i6SnXutiCcinucXsSP+O2Ltf9d1neEPH8AADMAADMAADMAADMAADMAADMAADOwrA/9uXxtGu7bbaa9//w/MLv7BxXa5wL/4FwZgAAZgAAZgAAZgAAZgYI4MIH6w82WlnT+7KHzYOs+xE1InPhxgAAZgAAZgAAZgAAZgAAZgYLsMIH4gfqwkCCB+bLdjMvDhXxiAARiAARiAARiAARiAARjYHAOIH4gfiB8wsBIDDMSbG4jxJb6EARiAARiAARiAARiAge0y0C9+/MWvzU8+/dfw9y/m1T/dbkWWC/SBOXm2MKdHG67TtRNz9vhw6YXgwfGZWSwW/m+F/Mu1fbNtPny8mh/3fefH9QfH5vz8kXlyd7P+TrHeEsMrCjkXwfDLH9rxZG5jiY3vX5pXfyFj3b+an3x4tPQYkOK6PC+2D7rxQ40dMR7PTsxBK6Z2rOq710q/Z9daPlsnBuRdnlt8hs9gAAZgAAZgAAZ2jYEe8ePI/PDTfzU//It5BtRNfNVCYW2nx4XEoTm1duN73f5DcyoCx2Jhzo4PqgWSW7Bssl5hwWLb2ypv7XZb+7atizNzck23dfz/TYgfD//5kVn842v1g1P/y9+axfkjJz5YAcL+NdMNPHS1z7b1mRM2nt6o4qf9ubr48bp5+HxcNNk4wxta3PYzvL5Ys7L48aefmTc+/bV5eUNt1HG2/7/01/9ifvKLz8xLW7Jflpe9Pzo1i8WpOewpe6jvz5WhrH097VorzYjP1rK9jfpic3CsJV7jn7f4CB/BAAzAAAzAwGYYaIsfW15srBW8bU18nQgQvoEtFyPhnhYgDo5PK8Ggf+G4XrCGFkBr+VIm5danS36LvH3x41Pz9L/IL8q8a36zpACyrvixul8niB/bYljiucZrP8Prix8r+3TL45EVZd7467+8lAVav7/DmGFZ6RVULzEmazC2MgehzFGfXWLd1m0b+df7rMR/+A8GYAAGYAAGYGCIgbb44Y68tL5ptTtC8m3r2cLB5vvwyH+TGo7MVIuK7DjNsouOscl+vjtjqQW9Fj8KIWDqN6ztSbmtU76zohIz3GJYhJe0y8PZU7tN2kdr8jZrgcbv6rDfKqs0Rds8HGN+rTuRFT9+8Y+fZrszfnNfxIpw75/fTbs63G6Ou+ZhI5/s7jiX9C6tFj+Cvf/7t+YXkl/S2t0fS9i27R3e+XHDPIm7To7Nw5uNtocjMVJvORpz52m+W0Xuv3jwulpYD/haRCjNYrbw9XnbHNh6qjhbblSsKzZdGfWOgypd1xnHf4PDjLWhBacTL+RYSTmu2DHl1+ZlnSbuwvA70NLxO7GRj0Fu50Y8opfbl/FJp8l3tPkjL9U4Fdqj8zWP7AyOZ3n9W2W0/J0N2IPiR2c6YWbI/4173/34f5r/ePar8PffzR+pNH/0j78y/+HjHxmd5t//XegH7/5X8x/ObPr/bP695P/n/2q+W+RPtv+n+f67qQ8N2lY2Mh8U10d9VqQfssW9FBt8gS9gAAZgAAZgAAb2nYFM/Mgn+rLQ0GfgJ4gfdhEiZ+ZLEcW9zxcuSzm4Z8HmbfiF3+QFmZ4gW7tuodg69uLtTnm+SHtSbvMPiR/1/dInlVgS6+4Xw6nNRV3jIlrKL+5HO51p171/ALh+/645P/dihtsF4t4nwcIJIz0Chewa6dud4cWMZCsKLRPEjzHb1rfD4oe02YogDfHj5m3z4vyeuaN8l8drZOfHEMNRBAuihEsrsQsiRBRDytj7+4kFaYd/reLbU48qXWzngGgT0+Rl5n7pTNfcwSECgYgW/n0mUDTzhbKKMcaNYVE86Yw/apPGpHRfylXjnBNQ1Pj0p5+ZH6odISmvLlulz/xQiiqNdnUT+t2Y+OEEr8RI5fOsTqHef/ffzX90AoZ/70QOJWBYgcKJF//4n51ol9134oe9L6KGF0FEHMnSdl0QUJK4Mmi7VdfGtX5GQ/saeSb5hXxKpMWXMAMDMAADMAADMLB/DGTiRwxwsaCI1zs7gc8n+/LNqktj86mFR5elLxcDKzhz4FtONyFW33SnOi9Rjl0QxsWl5OsXDMoy2pPyWtzIxQxvv2/RasvI00u9wvM6ijZndXAL3PyBpr22BnxbtrPrXjdP/2/9HA4tZmxU/AjPAJGdJevYtm1ZX/wYeqbHiPgx5Gd7LxPKtOBgOSl2ahS2bGz1bg8dt4wLu8iblfgxMKbYug6IH3b8yYSSbMwJ4ocekypbS4xLWd6RfDatLleeLSLCcFho9/ZHWYj3xCnFVjOixgbJ33i1AoSIFd6OFTBEzOiMEyiUGNLF3R6d8f/n+W16u1OkC7tBcts/Mt//55R+0HajrqmdqW2jPptop2Wba8nP+AJfwAAMwAAMwAAM7BsDFyh+tL/5XMahQwKHW/hVwsUmgN22+CELUTn2Uixwh8QPt1iWfOpV/DC6cFL+WSZtED9EjGjttlhHoPA7P/IjJLqsdWxb3tYSP+zC6u69dNzn+W1zPVtsDYsfQwwPHmFw8VExlmMomfjlF8JyLEbvVtpP8cMLEEPHYjJxNouTsD8kYrTsD+xQ0fadgFzuKkk7UFw8Frkw2TsWSuylX+tyhsaHIp2378WIdCxFjr7k4ocXM8RH6lULIZX9XETR5YkgkoQSZbOy0763lM8m2uz1OfnZBQIDMAADMAADMAADe8fABYoffiGRf0vbnuT2TkiLb7p1umpxtzFYw4KyZ+ExXoexnR+5D/wEPxdAer/pHPCHq9cygsaYrcyfrZ0fr2W7QdYRKFrHXkRgiUdgVjxSY/2ytvihfOGe85EJIMPix6DAMRSDZWJp6xcWzCKAVP2jx16VLrZ1+R0Gum+4/7OdE8L9yG4yW34zn80/PqasI37YvNlOtqweI2VXu+Ckvflrb98Wvw8x4dIsG5d8J0YVo87v/Fhd/Ei7PLzt/FjMOuKH1HXUZ+I7XvduwiIM8JqPI/gDf8AADMAADMDANAZWED/SNnN5Rkh8kF814c8XNj69fHM6rYJZIHsWbC5NsdjL8q07CbYLkOJb2um/9pLvHPHiRnqoaVVPV1Yufrg82Tf84jtvu/fIzJC/Cp/0L3qlrPzViRvVMz/SM0Dc/fCMjuvf97/Wkj0jRB5cGtOkh6VOEj9ivuVsW39vUvxwtjLxozNOEOn7Kd2hmAwudKeLcJ6pBneRIX+v9ROrQxysvbsqEw+Ep3yMsHWvBYv+XWNjY0ptS8qVVy9ixDFM9QsnfsRjKj7dT9RP7g6X7evcsqv7/JC/XTrLxKDwamO53DM//INM03M4dH3s/4MCxeDOj/rITPkMkEHbyvdlnfT7UZ9NtKNt8r/0B15hAQZgAAZgAAZgYH8ZWFL86Eynt3N/eJQvVEbEDwuSCCayVX1scZDD5xeAw4t9dTQgLvY2EMAggMiRglSHsCiVYwjyqhcsOu/jw/wZHvqey9tayBRlaNvlL3xokWZooZ0tELx92SWQ+7ztu7gDI/4ySv6A0uvf9ztB/C+efGqe3v9bs9Biif2VlizNIzP0ay9650eebznbtm1OsIj1DsdrRKzQR1pimvTg0zpv6+Gn+hdjHpnWr70kfpR/LQuDzBYcLLSIJoJG4j8vQ+c9MydHJ+YsPkNE30v560V3XkZuX7UjY6vu877viwg6Rfwoxp3iuUPlmKJ3a6wjfvgdJ+noyg//+jPzhhI/xsczL4DIWGdfy51vowt5y0TW3ws/jzJTpA+x8QKIHHn5lfmP6hkfgwLFiPhhfWLzp2M1ucgyaLvgpm8cGvXZRDt99rneZga/4BcYgAEYgAEYgIFdZ6Atfsx58ujEgnxnxK4H4dLrv8ICKhcj1K4NJ2rM9/2l+9r2LRhmO34YY0cX8paVXvFjedFyFvyv+fky6rM17e+Dj2gDk1MYgAEYgAEYgAEYqBnYPfEjPOCvf0FQN5LAD/jE7Q5p7TYZyGN3T8xc5Oir31xYWPsICQu8/RBQRoTHoedbXFmGRnw2lz5OPYY/Q/AP/oEBGIABGIABGLhoBnZS/Oi6q/mN5zbgsAuoZY67SB36xIW5X5f6X/4rDF9+DObxgeNEDHvkTe3wcLsb3DG4nl1uVrQcPCI1j7ZtK8Ytn22rLOzuN0vEl/jCAAzAAAzAwNVhYEfFj6sToLl2xrmLHH31m6s/qRd9GgZgAAZgAAZgAAZgAAZgAAa2xwDiB8cHVjo+0CcuzP06g8n2BhN8i29hAAZgAAZgAAZgAAZgAAbmykAmfnz44d+YV175w0v5m6uDqBedFwZgAAZgAAZgAAZgAAZgAAZgAAZ2mwHED3Z+rLTzg46/2x2f+BE/GIABGIABGIABGIABGICBq8QA4gfiB+IHDMAADMAADMAADMAADMAADMAADOw1A4gfAL7XgF8lJZO2otzDAAzAAAzAAAzAAAzAAAzAQJuB+YkfP7hvvrzzlfnm1vs9i/Kfmo9vf2W+sWkG07UbfBkgxJ9lXCzM2fFBT7vmU99lfPTSX/+L+cmn/2p++BdF/f/0M/PGp//q7v3k01+bl1cVmY5OzWLoJz9XtUu+veJwGWZJW/RV+gJ9AQZgAAZgAAZgAAZg4AowsHPix1tvf2G+uX3fvLWDwbEiSFP8uHZizhan5nAH29QrfkhbnAiyqvhxaE4XC3N6xGKNBTsMwAAMwAAMwAAMwAAMwAAMwMDqDMxP/JBFc8/rh7e+Ml++/dOdVOb2UfwY7XzriB87LAqN+qWHb/KtPpjhO3wHAzAAAzAAAzAAAzAAAzDQx8CsxA8rbMhxlrbA4Y+8tO8NB1mEh4Pjs3CMothREI9XLMxicWZOruX2dD57DCPtRjgwJ8/0+864tI8PK4FG6pCC4Xc2+GMdtlz5q8tPefJ6be/6X5pXf/Ev5tU/PTI/bB5f0ddtup56IX5UHGwvZj0xQGghBjAAAzAAAzAAAzAAAzAAA1ecgVmJH7IorHd3vG8eyjM+stcvzMc/mLbgs8KDExeCKOEEimcn5sAC4HYYKMHBCSHqGMrgDoR1xI9Q90H709onvtvcqxU/7DM7RNjw79/4678sBg0rgkiaRl0RPwp/NXx0xQehzTGLb/ElDMAADMAADMAADMAADMBAm4EdET+k8uvt/FiI2BEFDy9wWCEkfxZHIWg4cSLf3ZGAKtJ2y+z8CO1aVfwI9Uo7RhoCT9xNIrtK+tohPpZXL3boB5m653t8eFQs5rcoflgRSscMkaDwvcSK19Qf8QW+gAEYgAEYgAEYgAEYgAEYqBm4UuJHLnAkZ8RdIYVQkI62dKbTx2KyBfklih9bFQMuUfwQUadxdIhOnLjFF/gCBmAABmAABmAABmAABmAABqYxgPjRdaZ+Fsew85xYEgWQSxQ/RCQoRJuFPtpT3sueVzLUzksUP0TUYecHOz2EBV5hAQZgAAZgAAZgAAZgAAZgYA0GED+s89yuDvXMjxGHZs8L6bz4EXeVyA6Rxq6FfpFljj/pOgPxY9XjQCPxQxkdEr24Bx8wAAMwAAMwAAMwAAMwAAP7x8CMxI/2Q03zX3ZZ75kfUaBoLY5FtIg7JdIDT53YEa/bZ2eke65T6B0Yz07Mof1FmSh+tH/RpapLVv50IWZ7nXJE/PiLX5ufxF+BsQ9G1Q9H7Yx7Pkh1/9fm5Zbv+64hfqDs9rHBddiAARiAARiAARiAARiAARhYgoEZiR/7pyxtT5i4Ir5C/GAwW2Iwo79dkXEBJhgXYAAGYAAGYAAGYAAGVmAA8WMFp7HIuqhFlt01M4ddMBfVXsqhb8EADMAADMAADMAADMAADMDANhhA/ED8mLdqGI8DFUeNiNu840Z8iA8MwAAMwAAMwAAMwAAMwMCMGED8mFEwtqFuYRPVFAZgAAZgAAZgAAZgAAZgAAZg4KozgPiB+IEaCQMwAAMwAAMwAAMwAAMwAAMwAAN7zcBsxI8f/dmPzEuvvHQpf1ddAaP9qMAwAAMwAAMwAAMwAAMwAAMwAAP7zADixysv7bW6tc/w0jYGZxiAARiAARiAARiAARiAARiAgSkMIH4gfiD+sL0NBmAABmAABmAABmAABmAABmBgrxlA/ED82GvApyiApEEphgEYgAEYgAEYgAEYgAEYgIH9ZgDxA/ED8aNX4T0wJ88W5vRIDwKvmc/vf2C+vvay6V59w3x9/wPz+Zv6Pv9v9UPD+fwd81FvzDbp/7FYH5rTBT/BvNV4X0icN8kMtuABBmAABmAABmAABubKAOLHhsSPD299Zb58+6cICVtfrLxuHj5/ZM7P75k7sawb5sn5sXl4c7MDzeHjhVk8PixiOrYg3mwdNjpwvPmO+fboDfNu9NvF1fWj94JgtG7ZK4gfq5c9HuuD4zOzeHZiDtZtF/mLfnZxbG60jxFH4ggDMAADMAADMAADs2UA8QPxY7ZwthclXvx48fzYPLkrC6QtiB9Hp2bR/Fb/ZfPJkez2sIvjW+aTV6UeM39F/FiS9WmxtiLZ2fHBkrZnzgof2sQTBmAABmAABmAABmBgzxhA/LDixw/umy/vfGY+7N43D+98Zb6xf7fvm7dUsN96+wt/3d23af3iJb8e8to0t94PncXa/MJ8/IO02Ml2ifz4M1+Wq0PIH/P+1Hx82+ZV9XL1TLbaAoG67xbxC7NY2L8zc3KtuGe/tb52Ys7cfb3TIR35cDsgGvndt96Sb1EcD7Hl9tq2dfD2fb1s3aYeH/Dix5MHt82L57fNdReHUvyQ3SF2h8gjc/70RohFyBtFE/FFmT+1fdS/ipGus2LIO+ajcBzm2/sfVDst3r12y7jr9t7SR2b8ToSYP9vFUQsxcceDrk8o19uYenxkpF2VqJLqUrY31v2916Z/mFj7A/XOy0hiVH7d+9vZ0WUXtlc6wuT6z1R+hTlel+tb+At/wQAMwAAMwAAMwAAMrMcA4kcUP6zwICKFFxse/jg41woUSnRwgkchjmSCRrYgniB+aEHFiSBSDyt+6Hr595OP17hFmRI8yt0MURgJC7csfRIn5Fvt7BhI01ZZlhI1MtudccJJdaRkCsxJwLjzVI665OLFnae14PHiwetusW3vyf9p8MjzdysvZkWcEFHBv48LarfQlnud6dz7tFhP9Wn5we9CcM8acXz599/GhXwSHMROFD+ER1teJpi0ymldK9tV1KWyO6EuUqexVyfcKB+Vx15efcN8bp+/Euw4waNoY+WHWOZr5vPoP4mHik9M1/KJvraqWKZt8L/EkFdYgAEYgAEYgAEYgAEY2AYDiB9K/IhiR9cZLWbY//W9zu0QEYHCg6nT54GaIn5oW17g8OXp/305TniJO0OGO4UVGES48HUqFmlOwFCCRdiN4R/wGcQPLVDY9O75Bv5ebrsz2fb/QdtB/Ji820O3M4kf3d17YVeHFi/s//p5IJ1x6cIukesPjoP4oezcvG1e6DyxnbrcKf8PLfoLwSAsrPsX5kV5pXBi82dCwFDZwVYlUhRl9C72a9tOZBDhoLJbp5/czqIOVb6szY36N+5XNooyUn+t653uNcpSdjL21fWp+Uk37F/8g39gAAZgAAZgAAZgAAbWZQDxI4of6ShL7lTZfaGOtLidGlqwyMWSPP8E8aPYRZLyryd+pOMqcuzFv8ZfLxlc5BdCSbaga9/LFoCDtn3H1fUrhZTkg7KTK9Gis/9boUOJH07ICMdd7JEX+ZMjMiKY3Lxtnjy9Z57YHSE2j9zvgjCz0kMs68VzWnh78SPuAgn+TPfLdhbvK4FhBuKH7LCo6jbkh6JdGVf1vco/lbgRdsAMHIupbKgy7b38SI3aZaLS9fPo67z6Tqa6zWNlcR+fwQAMwAAMwAAMwAAMwMDyDCB+TBQ/8p0ftaPX2vmxRfFjUFQYFCjaAofvZK2dH8W1Qdul/+xPhk59aKQWPzrjd3LcTr/2Uu7iKBewQei488A+MPV18/DpbXNdBBFJu1TddVuGFv2tnR+ta9qe+t8KDPZ5IlJH+5pdGyo72KlECmVf263+r23PZeeHEy9EhLH1rsSRzvSJH/6ZINqndTunfqhkwl/lv6l+Jt1Uf5MOVmAABmAABmAABmAABpZlAPFjVPzojH+oad/OEA9d6zkgPhj580O8LfWzuPLA0+aCab2dH51dxJcPOdXlDC7yh8SPxrEVV5Z66OOg7bKjFsKJ1NHZ1A9htfly8aOzuz6eH5sX8adu/f30kNOirCB+PHzqj8bY54Y8eSpHYULatZ75ke8c0AvvarGdiRdFPcUH8dUuzPXPxZbCib8vO0t8WTq9CAN5/aYNGIUo4AQG+cWbUoSRnRh5Oa4+WqSI7Rpud57Pt1GLQE78kOM3nZStBY3O5DZSeeV1Z2ulX+8Z7ivTfJzqRXp8AQMwAAMwAAMwAAMwAAObZwDxY4L4YcET0cL9Eow99lLt1iiOx+jncrgHpqZfcsl2iWxT/LALTBEQ4q+yTBUoxhd0+a+96GeHhHJ7j4542+mXXkqBI4AuddfPHanEj864B5xG8cPmDQKIHHk51w85tUdk1ANR7a6P80fqZ3Nt/h4xZnTBXogEXb3rwC244xGNXCAYH+Bk8R+OasRFf/CXE1PSPS28iO28/FwkkDT1a1Fu41dqvHDgy/78zdoPXRQmUv3qckI7Mj+LoGHzWX9Z26reQYiRoyufX3vDfK3vO1vaxgcmf0hsqI8Tlt5Y7aeLVxbLWu3l2jQu8BN+ggEYgAEYgAEYgAEYWI4BxA8rfmSLreUcSN499ZcTXpRQdKUZaYkZexr3FeLMkRdY4HMABmAABmAABmAABmBg/gwgfiB+IP70LHjdA1mzXSfz79DbGXQRP/r86nY/9e5wuqq80O4+XrgOGzAAAzAAAzAAAzBweQwgfiB+IH70iB9y/CX+Ok5vusvrwBczeCJ+tP1sH9TL7qC2b/a9T9A+4g4DMAADMAADMAADu8YA4gfiB+LHlRU1GLB3bcCmvjALAzAAAzAAAzAAAzAAA6sxgPiB+IH4gfgBAzAAAzAAAzAAAzAAAzAAAzCw1wzMRvxAvVpNvcJv+A0GYAAGYAAGYAAGYAAGYAAGYAAGhhlA/EDd22t1jwFgeADAP/gHBmAABmAABmAABmAABmDgKjCA+IH4gfgBAzAAAzAAAzAAAzAAAzAAAzAAA3vNAOIHgO814FdBwaSNKPUwAAMwAAMwAAMwAAMwAAMwMMzArMSPw8cLs1gszOLxIQtyRBkYgAEYgAEYgAEYgAEYgAEYgAEYgIGNMDAr8cMrVQfm5NnCnB4NqzaoWvgHBmAABmAABmAABmAABmAABmAABmBgCgMzFD86c3B8Zs6ODzai7kxxAmnoLDAAAzAAAzAAAzAAAzAAAzAAAzCwvwwgfrCFCJEJBmAABmAABmAABmAABmAABmAABvaaAcQPAN9rwFFu91e5JbbEFgZgAAZgAAZgAAZgAAZgYCoDsxQ/uqNTs3h2Yg4QJhAmYAAGYAAGYAAGYAAGYAAGYAAGYAAG1mRgnuKHbZQVQBYLnv2xZoCnqmCkQzGFARiAARiAARiAARiAARiAARjYVwZmKX7YB57yc7d0un3tdLQLtmEABmAABmAABmAABmAABmDgYhmYrfjBr71cLAh0PPwNAzAAAzAAAzAAAzAAAzAAAzCwrwwgfnCshLNjMAADMAADMAADMAADMAADMAADMLDXDCB+APheA76vqiXtQpGHARiAARiAARiAARiAARiAgekMzFD8ODAnzxbm9Gh6Iwg4voIBGIABGIABGIABGIABGIABGIABGOhjYFbix+HjhfuFF37mFmD7gOU6bMAADMAADMAADMAADMAADMAADCzLwKzEj2UrT3qAhwEYgAEYgAEYgAEYgAEYgAEYgAEYGGMA8YNnfvDMDxiAARiAARiAARiAARiAARiAARjYawYq8eNP/uSPzGX8fe973zP84YN1Gbh7964Z+lvXPvmvBqNDDP1///T/GvsHC1eDBeJMnGEABmAABmAABmBgPxhA/EB02atFnF20fveV7zb/7D0Grv0YuLYdxyGOED9gaNv8YR/GYAAGYAAGYAAGYGDzDDTFj1de+UNz0X9j53O4zxmuKQzYRet3XvpO88/em2KDNLA2xJGIH3ACJzAAAzAAAzAAAzAAAzCwOwwgfnCua68EgaFFK+LH7gxMl/0hMsQR4gccXTaflA+DMAADMAADMAADMLA8A/MTP27+xvzi/Pfm06e/3JNF+S/Nz89/b35+d/ng7DPQB8dn/meNFwuzeHy4sVhXi9Y7vzKLZ/9g3n3pO+5ZIMmnB+bk2ak5XFb8unZizmyd3d8K+Zctbx/SX4DP/M9kn5mTa5vpZ8LR3/96YX51J99JhPixGR+nvog9fAEDMAADMAADMAADMLB9BnZL/HDCyL+ZP9+pBSHix1BHdiJIU/yw4sTCnB4t1wlk0eqOvvzVP5jfLn5r/uGv/OLV3us6a9cvkg8fW/EivU/19GV7gaNHnHEL+i2IH0enZvHsxBxsmPFMbLos4abXZ0OxHrqX2Fhd/GjbjxwVDFmuED+S31Of4Rq+gAEYgAEYgAEYgAEYmDcD8xM/hhZ9iB8b2yExl465PfHjXfMPzxbmtyfvxud/ePHDdshc3MgFlkNzWu5GOTqtRZjehfyaHX6b4ocSmZxYsAWRZZCrXp+1BQhva+jemr52Y03bfhQ/7PNj1O4hxI9N+Bwbg/1k6DOQe3v3GQgLjAcwAAMwAAMwcHEMzEr8+POnvzef2iMv5783v3hwpCY5fveE3EuvvzM/u5mc9ccPfhfzf3qudojc/Tfz6dPfmJ89t7Z/Z352Nxytef4b88cbmUwW9cvsFjs/5FhPlia1oYwUDg0AACAASURBVA1/Y0G+iXrLQtstSsNRDrVALkWC6niKzR+PgCzM2fFBjFklavQsfKt0XWf8t/hytCS9avttP3XuaIvb9VEsWO21tviRH5Vw9ZkiCjTbY+OU27Ntyerd5zMdA+XTxULvLslFmzweaRGf/JfqUvq5bueQbctnYFDqpn0kHEUmaz+4eDV8luqa4myZSj5L7WrGPPOb9pX0qaJdyp9DZWfix0teSJPjL+z8EN/y2mQy9gP8g39gAAZgAAZgAAZgYE4MzEr8EMdYESQXPwI0Qzs/rMChBA8nhIjA4O755254gcUKI1aUyMUTKX+51yMnqqT6+vfpmSVK/AjCx/LP/9ii+OEWs2HR6BaSacHsFodRDPGLyLQo7Vnghol/udjuGgtf6+cqXVw4jCx6Y7p8QJFFq31Wg971kcQPa9e3sT72UrYxt51x0WxP7RPrw6k+c/YrISHVYTgevu5aONDpcz+HtDG2QXCK72s/5O1IdWrXufaDS9f0mbXly8t34EgZQ/ckTWeW50vytu0LR05Ie+k75t2T35rFr//e7SJC/BDf8ZqNCT1jEmngBAZgAAZgAAZgAAbmwcDeiB9W1MhFBSVuWPEjCCFJWFH315m0FqKLAzsTaYL48cDvNsnruCYEbjGZf2PudmLEReyIfbcLIYkd+SLULmCLb9Kzhbm9rxf2eVn5YnuVxWl7UTo2cPhFa/5NvSxg7b2U39ov2hcW4UmsyNuU8va1p17056LBsM+c/czHuvyxeHh/ZbtBlC0XD9m1UcVtzHYQR/RuD91nVDneR7Uf3PXLEj9KjnXde4SXUvzQR18QPzSX/J+NCxlb+AbfwAAMwAAMwAAMwMCcGNgT8SPstghHZqpjMdsWP2SHiUx8G+KHr5M6iiNpL/O1WrSqztknrOgFcJYmFxIuV/z4e/OrRf0rHbn4odoaY+AFhO2JHyKaiGCV+8wNDH0xyXwt+Rfq4ajDYpGOh/u/N44t29ZXQVwJAkq2S6Oq83zED+tTtwMm1LuObdtvlfjhHnz6K/P3PPBUCYitPsS1OX3AUxd4hAEYgAEYgAEYgIHEwF6JH727KrYtfqjjNg6ubDdIOvbijtyUQklceKegTAa0b0G8zM4PvQjWdXG2G4tznUb973cWpPR6se3a02OvShdtthelY77xi9YpOz/a/nYL5T6fxLqJiJHa6+tVL/rznR95maXPnI1KSAh5evyX/DHsr9zPtp7ql3RGbef19kdMVP6qzrUfXD17yxmq+9A9Va9e2ypNeG5JLoC07Vfih3qGDDs/tE/5P/VBfIEvYAAGYAAGYAAGYGDODOyW+OGe01Eeb/GA+Yed9uysmCh+yDfE2bfaesHb/N+LG+UzP9L7JH50Xfk8kKmdwy9WsyMNzbpMtRfSVYtWnd8vCieXaW2p4wVusR1FhFB/dV86Rb4o1+WXz6HI79n8rXjJorX/mR+1HamLe3WL6OI4z+Rfe8lFBS9uFLZ03AqfpfL1USSp71g82ot4aVvp5zw+Y7alDvKat7PL2hFsFQ9+TW0rBSNv08WyKdoNt0va1/fMj3jf+d3bysWPNmfCkRyZ4pkfEntec6bwB/6AARiAARiAARiAgV1hYEbihxcJ0pGV1q++dKZzuyrkV2HyB5bmv/by+/icD5dnyjM/3CJuYLGqF67Z/0Xdn/5SbQ3X4oftGJK2R6jJ7EpHugzxw5YtC9l0FCIuHIOv0q+9lAt2nffMnBydmLMofuh7yXYttIho4tPEsoOPhsQP94yGhT+mIAtYu6Cd1DGDABLbphblImjEe/qBsbZe2i+PD51AE+ut77l8pc98vPMytFhQ+y3a7nl2hbS3FD/k11vK/Lpd6V4eB5sm3fN1lljYe6dHNn1qW94eibdul7WRl5Hs1232ZbR8Vdpu5FWxFN+0ys7Fj3wnETs/vO+T/3iPL2AABmAABmAABmAABubPwIzEjxk4Kyx6l9v5MYN6NwWTq1mvtGj1C1b9iy+TxQ/8OU0k2mM/JY6+Y/TDTq2QhvhxNccWJjTEHQZgAAZgAAZgAAZ2mwHED7eAS98QI3zsNtDZotU9pPK35h/+6jvuJ0oRP3Y7thf5YRM5KhhC/IChi+SQsuANBmAABmAABmAABjbHAOLHHn97fRU7Sly0vuQFD/2tPeLH5gaOfWdLOLLPjvnVncBSYIqdH3C07/zTPhiHARiAARiAARjYRwaa4sef/MkfmYv++973vmf4wwfrMmAXrd995bvNP3tvXfvkvxqMDnEk4gcsXA0WiDNxhgEYgAEYgAEYgIH9YADxA9FlrwQBu2gd+mPg2o+Ba9txHGII8QOGts0f9mEMBmAABmAABmAABjbPQCV+vPLKH5rL+NvHbTW0ie1iMAADMAADMAADMAADMAADMAADMHD5DCB+8MyPK//LHgxElz8QEQNiAAMwAAMwAAMwAAMwAAMwsE0GED8QPxA/YAAGYAAGYAAGYAAGYAAGYAAGYGCvGUD8APC9BnybyiG2UaZhAAZgAAZgAAZgAAZgAAZgYDcYmJ/48YP75ss7X5lvbr3fsyj/qfn49lfmG5tmMF0rAAfm5NnCnB0f9Nhu5enMwfGZWTw7MQfrCiVHp2axWJjF4tQcrmuL/EvFkAGpzTZ+wS8wAAMwAAMwAAMwAAMwAANXgYGdEz/eevsL883t++atlRb/lyl+HJrTxcKcHtGxrkLHoo1wDgMwAAMwAAMwAAMwAAMwAAPzYWB+4seIqPHhra/Ml2//dMVv/S9R/Lh2Ys7Y8bFi3ObTYRi8iAUMwAAMwAAMwAAMwAAMwAAM7B4DsxI/rLAhx1naAoc/8tK+N8X5Xvxo7b5wR1vckRR7LCXfoVEeezl8XKcZhR/xA+FjRNgbZYj8MAQDMAADMAADMAADMAADMAADKzEwK/FDFn/17o73zUN5xkf2+oX5+AdTRI+UxgoXlfjhnsWhnsPh3p+Zk2s+nxY/nPCxyvM/ED9WAlSY4DUxjC/wBQzAAAzAAAzAAAzAAAzAAAwsx8COiB/SqHV3fnSmFj/aR2FsOnkwqogfJ3bHxyrCh1XmrKCyal6UPYQTGIABGIABGIABGIABGIABGIABGFiZAcSPrn0UphI/wpEYEUQmq2xux8fCLB4frhykyWXREfAxDMAADMAADMAADMAADMAADMAADFQMXDnxoxYSWjs/8muy8+MgCBnVsZkpYLHzo4KvjoXs8OEV38AADMAADMAADMAADMAADMAADGyOgSsmfvifmy13YThxQ/8SS/EMkCh+WJGjeB7IZBh55gfixxSRjDRwAgMwAAMwAAMwAAMwAAMwAAMbZ2BG4kf7oab5L7us+8yPtvhhBQwvgPhfcVks0sNO4z31vA5Ju9QRGMSPjcM7WXhi4MD3MAADMAADMAADMAADMAADMHClGZiR+LG57SyzXBQjflzpjjZLJhn8YRIGYAAGYAAGYAAGYAAGYOCKMID4cWGBtrtO8h0lLIj3XPC6MLbwI30JBmAABmAABmAABmAABmAABoYYQPy4yAWqe16IPVpzag4vslzKQs2FARiAARiAARiAARiAARiAARi4wgwgflzh4A+pYtxDNYUBGIABGIABGIABGIABGIABGNgXBhA/ED9QP2EABmAABmAABmAABmAABmAABmBgrxmYjfjxoz/7kXnplZcu5W9flCzagSoLAzAAAzAAAzAAAzAAAzAAAzAAAzUDiB+vvLTX6hbQ19DjE3wCAzAAAzAAAzAAAzAAAzAAA1eLAcQPxA/EH7a3wQAMwAAMwAAMwAAMwAAMwAAM7DUDiB+IH3sNOGru1VJziTfxhgEYgAEYgAEYgAEYgAEYaDGA+IH4gfjRq/AemJNnC3N6pAeP18zn9z8wX1972XSvvmG+vv+B+fxNfX83/3/32i3z7f0P/N97r8FELxMpvtv3mWft26M3zLsT6tMa4PfpmvP3kC/efMd8e/+W+eTVzvjYvGM+0n67dmLOnp2YA32N/+nrMAADMAADMAADMHBlGED82JD48eGtr8yXb//0yoBzeYuq183D54/M+fk9cycOVDfMk/Nj8/BmWphuon6Hjxdm8fiwiOmY+PGy+eRoroJIWEwHkcMJONGH3ndu0bgF8eOj94JgVJS3bpwyAcK1q1jwbri8Vn37fTbEwtA94XgN8cMJcxfvC+cfK0IMiRQrxsT5ecjumPjRdabdp8XfvLb45hpcwAAMwAAMwAAM7AsDiB+IH8Xifu6d24sfL54fmyd3pa5bED+OTs1icWoOq4WaXrTaxan/pjkNCPq+1G8Gr2GXihY83r32jvuWPNU9fGO+a+KHqq8VWbax8NY+Kv/fnvixBjdXUfzQbe4VYFq7udbwczU+YKvsH7yHCRiAARiAARiAgbkwgPhhxY8f3Ddf3vnMfNi9bx7e+cp8Y/9u3zdvqYntW29/4a+7+zathzi/HvLaNLfeD6KCtfmF+fgHCfpsl8iPP/NluTqE/DHvT83Ht21eVS9Xz2RrFCS3iF+YxcL+nZmTayqvvWe3gdvt4O6+3umQFgnu29JG/oPjs2DX28+OhwzatnXw9n29bP6W0KDqGmPhxY8nD26bF89vm+vueil+yO4Qu0PkkTl/eiPEIuSNoonYL/Onto/6N9arM27hLUdH1KsXHLwoosWHrsuv2UW0va/t5EdqfPpVjqc4m0ok6GtXeyFfizzWXtYW9617ODYjx4I6OX6QrrfrPrAjJS5oVRr17X9ZX/de3Rcft8vtTNdTb+uf0rY/5lTvpqjSdWMsWO6GRTJnUxhqxk35w6aLbS6ui41KpBP2y1dbLyvoaTt5m7O66WNfQWCLvo5l5/n72HPXSxuq7a7c2M7k47yPlO1pvJexSfXdwTqRbscE8kbMiSExhAEYgAEYgAEY6DqD+BHFDys8iEjhxYaHPw6TKCtQKNHBCR6FOJIJGlnnmiB+aEHFiSBSDyt+6Hr595OP1zhRQwkeTghRIoN7r4SHLH0SJ86OD1xnybaMN22VZfXZ7owTTqojJVMmrUnAuPNUjrrk4sWdp7Xg8eLB664N9p78nxY8ef7O+UH5KYvnWB37F7Xl4s0vptPOEVlURlHBLczTwjEXMHw5Me1gHf1Cdsoi0dVBLTi9j2z+VE97LRc/6vvJt95feXrtw7IdRV3jYljKz+/n9fW2vlX1H/bZcL1z251ZRvzw7e9nYUz8EP9VdQhx7vdn8G0UjbSvp/wffBjjXcSnYNKLRxKbYN+mUSKFtGX8NY9t1/n3wrjzRbDr4rpSGbaOh+a0FIIH+88Uv5FmPL74CB/BAAzAAAzAAAxcLgOIH0r8iGJH1xktZtj/9b3O7RARgcIHUKfPoZ4ifmhbXuDw5en/fTlOeIk7Q4bhsQKDCBe+TsWOBidgKMEi7MbwOziC+KEFCpvePTDQ38tt+/P08dqg7SB+TN7toduZxI/u7r2wq0OLF/Z//TyQzrh0YZfI9QfHQfxQdm7eNi90nthOXe7U/4cWvPliu1zYlu/94k8WljZvEkJcPCcvMstFZX9b6jrYtHm9bdn54tvbl0Vqzr8vK0+vyreL9GIRm9UhiB9auNG2XNq4w6DYjeLqPeSz4Xpn9bCL4x5BoUoXF9JDLAzdS/7psz26+O+pays2+bW6XqkO/l4ZZx0PZ2syl6mdNp8rp2DBiSvhmtz/ZO2jTcU4GOOV1yf3C/fwBwzAAAzAAAzAAAzsOgOIH1H8SEdZ8qDK7gt1pMXt1NCCRS6W5PkniB/FLpKUfz3xIx1X8cdS5IhJPJ4yuMgfWiC079nyMvFj5JcVdP1ivtGFiBItOvu/FTqU+OGEjHDcxR55kT85IiOCyc3b5snTe+aJ3RFi88j9LggzI3VPMSoHwXrxqNOmhaJNJ8KGt5EWmWJTiRZBBKiOFJSLxab/lJ3mfSmvcdTDpbf587qmdoS8Wf0KwaESS1J55bGT2D7ZvTGyiNc+k8Vx/GWUrE7q6I32WZYmr7e27WLYU5cqXfTxEAtD95J/xmyLv7Q4NFRXzWL7/7peqQ71PWujYmEd8UPiLj5Utlw9gtBVCjDttiQ/lvezsUrK4pXtsDAAAzAAAzAAAzCw1wwgfkwUP/KdH/Wkeq2dH1sUPwZFhTXFj9x2sRtk0HbpP7sNXQkng4OOFj8643dy3E6/9lLu4ihtBaHjzgP7wNTXzcOnt811EUQk7VJ1L9vSXiDGxZcs5uxCWi/C5ZvvbPGnRIeehXe0K3Vvvvo66eMgffnSQle3S9Uj2K8WvKpcv0jNhYTe9OIPlT+r20i78/oWIs9I3qwc8b/aXZPbntfOj6zurp3FLwwt2fZkr+Y3+cHfy4WHxrWxmPbE2pXT6hPhWrzfam+PzdQuzXNbvG2n1fn4Hx/BAAzAAAzAAAzAwC4zgPgxKn50xj/UtG9niO8AreeAeDDy54d4W+pnceWBp83J+3o7Pzq7iB862z64yB9eIPiHnarnYriyiveTd08Uwon4wtnUD2G1vs7Fj87u+nh+bF7En7r199NDTosBKogfD5/6ozH2uSFPnspRmJB2rWd+hAcxZiKGrkNYLB7dMuW39WmR6dNbwSA9O8HnmyJgNAckuyDVD6d0i/2pv/aSiwqunuqhplV5rqxc/IgLV4ltfPW28wW18tfIIr70WV7Okj4r6p3b8vX8Vokj0u6yDnLdvroYNlnwdSsZ0Hnt/0O2U9o8Pv5665rya/R/ea2ul66D+1/7oPCZK9vFLN8plOpalqfeV6JG3gZXtogjrtwVynDt5pkfk+LRy4iKGWn2+tsxOIF1GIABGICBfWMA8WOC+GGDLqKF+yUYe+yl2q1RHI/Rz+VwD0xNv+SS7RLZpvhhJ6YiIMivuejnbKwhflif5L/2op8dEsrtFT+82CHHcNyrfraITKil7tm9UvzojHvAaRQ/7CAVBBA58nKuH3Jqj8ioB6LaXR/nj9TP5tr8PWKM1Gv0VRbK/qhFubCvFpDBnr/eczzDpQmL+d5nXIwM0G7BmOynetV23XEKvWjXed97LT/qoO+5urUWpUUZ2nZ4sKUc4chEmiXFj/IhmfJgUW07tnu03rrOt8wnb75hvo4Lf30v+bQWp/pYaOf3Ykj7XrKd27Rti23SbGbta8WkxYsvW4syjksVr5zTtt08TS6EDX6IBgFE4qXb5WyK+CHCUF/btR/K/wfHvZZPuDYYs9K/vEcQgQEYgAEYgAEYmCkDiB9W/JhpcKjXJS46nPCidrJskJFyMSlx7rsu93m9RB42GH/ieJlxHN7RRmwuMzaUDX8wAAMwAAMwAAPbZQDxA/ED8adnYeseyJrtOtlAZxw4EoD4sQH/9sSSDxJ8axnYSp+GOT5DYAAGYAAGYAAGYGAnGED8QPzYCVAvZ/G6wW+J1XZ+faRAtwvxgwW65oH/N8yDfZZP71G8DZfFBIjPFRiAARiAARiAARiYHQOIH4gfs4OSRR8LMRiAARiAARiAARiAARiAARiAgU0ygPiB+IH4gSoLAzAAAzAAAzAAAzAAAzAAAzCw1wzMRvzYpKKDLRRCGIABGIABGIABGIABGIABGIABGIABYQDxA3Vvr9U9AZ1XBj0YgAEYgAEYgAEYgAEYgAEYuLoMIH4gfiB+wAAMwAAMwAAMwAAMwAAMwAAMwMBeM4D4AeB7DTjK7tVVdok9sYcBGIABGIABGIABGIABGBAGZiV+HD5emMViYRaPD1mQI8rAAAzAAAzAAAzAAAzAAAzAAAzAAAxshIFZiR9ekTkwJ88W5vQIhUoUKl5hAQZgAAZgAAZgAAZgAAZgAAZgAAZWZ2CG4kdnDo7PzNnxwUbUHeBYHQ58h+9gAAZgAAZgAAZgAAZgAAZgAAb2gQHED7YQITLBAAzAAAzAAAzAAAzAAAzAAAzAwF4zgPgB4HsN+D4olLQBpR0GYAAGYAAGYAAGYAAGYAAG1mNgluJHd3RqFs9OzAHCBMIEDMAADMAADMAADMAADMAADMAADMDAmgzMU/ywjbICyGLBsz/WDDDq4HrqIP7DfzAAAzAAAzAAAzAAAzAAAzCw+wzMUvywDzzl5253Hy4GCGIIAzAAAzAAAzAAAzAAAzAAAzAwBwZmK37way90kDl0EOoAhzAAAzAAAzAAAzAAAzAAAzCw+wwgfnCshLNjMAADMAADMAADMAADMAADMAADMLDXDCB+APheA45Cu/sKLTEkhjAAAzAAAzAAAzAAAzAAA+syMEPx48CcPFuY0yOCu25wyQ9DMAADMAADMAADMAADMAADMAADMNCZWYkfh48X7hde+JlbOiedEwZgAAZgAAZgAAZgAAZgAAZgAAY2xcCsxI9NNQo7dBAYgAEYgAEYgAEYgAEYgAEYgAEYgAFhAPGDZ37wzA8YgAEYgAEYgAEYgAEYgAEYgAEY2GsGED8AfK8BF5WPVxRfGIABGIABGIABGIABGIABGLi6DCB+IH4gfsAADMAADMAADMAADMAADMAADMDAXjOA+AHgew04yu7VVXaJPbGHARiAARiAARiAARiAARgQBhA/ED8QP2AABmAABmAABmAABmAABmAABmBgrxnYG/Hjjx/8znz69Je9wXL3z39vPrV/A+lEFdqp12sn5myxMIvHh73tX749B+bk2cKcHvUphYfm1Jbp/s7MybW+dPO+fnB8VvnNXjs7PtigL+ftg+XZoD34DAZgAAZgAAZgAAZgAAZgYLcYmJn4cWR+9vz35ud3l3fimPghYE5NJ+l34nVI/HD3Ts3h0irmmPghMbIiyIbFj7v3zPn5I/PiwetRgLj+4NicP70R328kLkenZrFo+cYLO/3Cj7Sd143EYWk28Tt+hwEYgAEYgAEYgAEYgAEYWI4BxI99X3jtqvjx/Ni8eH7bXA/x2bz4MSJwrOy35TogAxb+ggEYgAEYgAEYgAEYgAEYgIHtMzAb8ePPn4YjKXI0Jbz+4sFR+rb/7r/5Yyvhnt4hIjs6tB19X2CSdPI+vma2f2d+dnNZ54djIFs+elIe0zh8LEdPFsVRjVCfeDRF0uW7NJy9mEbfk50f2k7fLgmdL/ktt93Km9LGOFixw+78eH7bPHz6yDwJu4BK8cO9P3/kdoicn98zd4JIcudpvmPE233dPHyebNlrpR+z8oMt61uOv/TEKPio5Teu4TMYgAEYgAEYgAEYgAEYgIG5MTAb8cM7ZujYyy/Nz/WzOpxY8W/mz8MizIka5783USwp7ovjm+LHzd+YX5wrwaMnr9hov16O+CF16V2oD+1guHZiTtWzLZwg8OzEHDifevFjoY60OKGlEndsuxviR3GkJLc9MhAE8eP6zdvmRTjqkokf7lhMEjzcvbBLJEsXF+il+CHCzkg9bBuiP0bSxrJIJ0zyCgswAAMwAAMwAAMwAAMwAANzYWCHxI8Sml+anyvBohY17P36+SF1us7Ya1E0cYvYIRGmrMfIeyc+yK4L9VqJCC079SK9b8fCSuJHuWDPhJK67K4QNDzEbfHD1id/ZkY7XbMjiPjRWdHi2Dy82RktatjdHbIjxOe/YZ6c+3Ru10gQTNIuEHXftXliXTJ/tOLDtWb8Sq54n3av4Qt8AQMwAAMwAAMwAAMwAAOXwsBOiR/6SIv71ZZB8aMtYLTEj9quP4LTOjZzsYu9WoDYrPjh7ftfbBFhRo6n1GV3TTGgJSS07Fr7jR0irY4fxQ9/BMY++DSJH34Xh30gav4XxA+7W8TtArlhnjy9Z544IcSKH2mniG/HlLq02obgcbF9AH/jbxiAARiAARiAARiAARiAgfUZ2Bnxw4kW5+mYS9dN2fmhjrKERXaf+JHv/FjfsRHOGe/8cMdY9LGOTNxoiB/NYyAtgaCRtyVy9F3T4kfnhYuH8ddeyiMsZayC0HH3nvu1mDtP75k7URCRtK06yz31mvlDXe+rN9cvRcGNfQ3/438YgAEYgAEYgAEYgAEYgIEeBmYmfnTG7cLQz/YIFXeixfPfmD8O7/1ujSRulKJGmV4WSGU6d9094yPZkrTLvdoF9cIsJh1nmbqQ9iJCfOimO3bSLqP32Evn65UfQfHlO/Ej1ld2a/Tt/CjqEoFqCwluh0rzZ2RV20UY0gKMtZuJH/7Iy4vn6adu3S4QvZMj1sXaFrHkXjwuY3eA5D+TO1GcaYo9qv5ZuVxfrr/gL/wFAzAAAzAAAzAAAzAAAzBwcQzMTvzwOzrSL7+kHRn+GR7+uIt9sOlv6md+6F+KUUJJ1/kjMJI3vmqRxQkgqdxPs10mUwKyDfGjM/6IRjiS8uzEHB6fKYEllBl/rcWni2KJLM5FNHHp1HEPER9C/tPjE3MWBQsRQ+Q4TPHLJ5lNSaNsyy+q6LqVIoeUX14vxI/O7tywx1zCszzsAOEFEHX0Jf4sbjgWI+9DXnt0Rg8sUx7A2i8oTeGBNNrf/A8PMAADMAADMAADMAADMAADl8nADMUPgLhMIK5O2f07YpwPOPKSiUVXhwvGH2INAzAAAzAAAzAAAzAAA/vIAOKH7I7g9eotdt3uFTnmowe4EWEEVq4eK8ScmMMADMAADMAADMAADMDATjOA+AHAOw3wuopk69dz7LXq6BCcXGlO1uWM/Fpc5H94gAEYgAEYgAEYgAEYuHgGED9Y1LKohQEYgAEYgAEYgAEYgAEYgAEYgIG9ZgDxA8D3GnAU1YtXVPE5PocBGIABGIABGIABGIABGJgbA4gfiB+IHzAAAzAAAzAAAzAAAzAAAzAAAzCw1wwgfgD4XgM+N7WR+qCAwwAMwAAMwAAMwAAMwAAMwMDFM4D4gfiB+AEDMAADMAADMAADMAADMAADMAADe80A4geA7zXgKKoXr6jic3wOAzAAAzAAAzAAAzAAAzAwNwb2Rvxo/WSpdra7v1iYhf17fHiJC/7XzcPnj8yTuz2d4eZt8+L8nrlz4aLMoTldnJmTa6peb75jvr1/y3zyamfevXbLfHv/HfPRhddLjVwFLAAAIABJREFU1SeW/Zr5/P4H5utrL5vu1TfM1/c/MJ+/2Uq3yrWXzSdHH5hv33vNdJ0qJ5a9is0N5dlmPLZpew6+20Ydtuozxd7GGd8Qj9vw6aDNbfbNbdq+TH9vs13btL1dn+nPs4/e+8B8e/SGeXeQven1Wce2y+s+e6aXp+c5/N/w2zbH6W3aHuFxjDM75z07PrjEuW4jFiNtgl98BgMwcBEMzEz8ODAnzxbm9Gj54I+JH+LMqekk/eRXJ1o8MufPb5vrgwP8MuKHT3t+/sjEv6c3tvBh5v1efVD2frD7Sa8TH2Jb9TW/cMsFCX0tTJrvf2C+VX9iz3+o5/dati5e/JB6axHItssLRJEV5zcRUBLLbpKtBaSwqJV2d5JP+SSblPfGI5UR6xDjMvHekO1Qr1jPLohhxSTdt68UooLP9OIi2PMxFZ/2x7viQdmSMhNHOjah7cHPmS+Vf3L7Kn+oZ7JdLJKGfKbsrxaTIfHD39P10rERQVDfF+HStVX5L9bNtsVdb8dj2H7iP/dliGlWXmFf3wv+1mU5e5GzkHcrwuS47Yo1qVeLE9eHFUtdZyR/ayzLY+X95tI527kdP06oa8J3HDdSPLpuvF2RgaWZnWI7ZzXGdkq7en0mYrweM5Q/JsTDc+rzuLhoDpf2Qz7GjtsOfpN4CUc94+rq8cnr5exY31Rt9fWJsVHtt77x14s6h7pHliufawZtPXIOLO8xb+Nefr8z5Wdjyiv1UvF39lT5rm7+vY7NRvw6xbb4RsU5lV34RaWR8UKPDTpGui1thu0XWqvNp1P9GgwpPkiHf2AABnaRAcSPDQ3k1x8cmxcPbpiHz4/Nw5tDnWF58SPtErlhnpw/Mi8evL5RAcQJQs9OzEHpCzepDpMK+wEeJ02tyZK+5j/Q0wTF+qN1TedJPnMf6rGsNPFJ9nw+/97aVROdsg0rvC8nfGW5Xx/dKiZuefk2/+dv2nrpCZmt8y1j89qdNHawsO207+OEJvNx8kccWHrj0Ui7bLuHbLt62bqmb0ddjNREzcf3HfORTVtdt3mTLz56z76Xya+OZaMd1l7mxzyNm/Sp8vSEUPzm/HztNed/8b3cc/kz+6+Zz8XeZcYjLFrbjBfMh8Vv5FTHsuTA3UsMaj9EDl2edt9s9+M8Jtami4PixZdT2vTvIy8TOOvvm3UdpG1TX4dst9tTllm2T98P40HVP1KaZhkt/rNr1q70pWRLt3moXTrdKv8P2g5caq7evfaOH/+yNoR6V9f6feZ8Jf1URJJR3pR/bFkhfWlrFT9keQZt+3hF5m1fe/Od+Hmy8bqU/V/VTde5yV4mIni24xgzYtfZi+PqUL9QMWnOEeTzP31+eCFExrBge+gzWY+HPe3Xvljq/wm2bR+p5wOdEZFa9w/NQupb2kfqf9WWXm6unZizxak5LOPF+43OoZdiBt/jexi4dAZmI34cPg5HUuRoSnjNdiMcnfpjK+Ge3iEiOzq0HX1fBidJJ+/ja2a7OP4xCmoSNLwIUooTXrSIuzfOi2Mvd++lnR1ul4cce0l2fT39+0z8kB0nsjtEdob0HZ+xZWW7UxrHXUbb25rM6GutCXnrms6TPtRbE7HWtRi70fom2+vl8fX9/NobSgiw7ZKJmC0nvfeTHinb5r1lPrn2Tvom7b03zEf2OJFM4tVkZr16Spkbeg31+sRN4rzNarIV627bryaqzh/vmE+uiWDkxYU0sQs+7Tm2ZNNF/zTiXN8vOUv2bZ2ziWaPEBB9H9u0IT826h/LWupeYsznL9qsJ+SVXe+PzA+K2VSfVrrGQqSyr/goF6Mtf+q6TuGsp7xU723EqscXVV0G0sW2l/0j1bc5xtl8WX8qYtC6X9UrlbFdP+Xl1H1T3W/Vu7xm3zuGap+V40/Td0FAzFlXdbgEP7Xrmeok7XK+K3dXuPp6xuJuAN3HYl/y44FLI/fdPb1TRv4PY7W7rz/HAmeSPxNjU30jTzFW4Z6OZct20/fFOKbaW4ou1j8+rt4fw5/Jjfo2y99GOtsm71dbZ92Owf4RBL1NsGvnxNk8+sLavg1/YjP2OeJ46QtoYrG7/XE24oeHaOjYy6E51c/qcGJFUrSdqLFQg3xxXyBtih9OHVeCR09esVG9aqGhEhdKwaIQNFxetVtE2+paabVw4kWV9s4Qe0/ZlYGyrJ9ta2vXh6RvvrYm+fpaaxLTuqbzpE7UnCDqyVSzTil/FZ+NpQ8TrTftFnaZKKbJjStXTQJlIuvrY/PaPK+Zz+2E8tU3zOfXXvbfkO+I+GHr/HWoa942v6U/m4xGMcP65x3zkeQN33JWk9eYvoiji3u/AFJPIAvO3MQ7TPBVbGxMmpxpVor02+OqaLOuQ/P/BnNagNNtbuSv2t1sZ7tvys6PakFelFOVIf4W1mN6FS+ph7DSm2dZf62f3rVHnjMU617a7fPZUP9INlo+899yazGxED/Ct+Vj8bh4dlVcW/6ysR4SdbLFXxp3pR3OV5Elf78WSfvjIXYu9nW8PiVnJRNx54zzaWHP9XsraujPpnzB7XiKgkZiT45H6cV2GqNtOl+WXrxnvpO+G2LtxuVYjs+b6qXL1f+3mCnGumA/+SXVq/czucXfRV1TfsmZbbVV+0KPGfn1zO9T2rHSHG/NMqfUizQs3mEABi6JgR0SP8rBON+xUIsa7fOOdbrO2Gu5Mj4kwpT16Izd7XEuOy66QnQoxYZC0LjztDjG0hA/0o6RXMxw5Wa7ODrTxfKscBLSK5t5XX3bl38AbDHpcvDqa60P9tY1nSf5NU1s0jW/RbRYBFx4p0kTLTeJdJPvfHKWTRizRWhKZydpn7/nt39nEyK3IJBv5MJrnOArX1x0u+MEzrbfT6yzehc7B7J70Qc27zuu3fahuclP3qfxm0z3badM3qXNnh2fJmfATbKVj/JJdxA44v0UAzuBbHKmfTvXeMQFr7CS+0S2U2c+jQsR2W6dfJxiIf62rz4uejGkJ93Oz81vpr2Nlm+HynGLqlHOdP0u4f+4uCye/RKZ6fNZg7vIZGpHy2fj4ofPPxYPHbuL+d/32cHFcuAn4zQKIsM+c75S+duc9sUj+fxifCHljdfHtUuzEcdPsZG/ZukDn9rnVZ+LfSy3Y/2Q85f7X8aDPFZpDPGcynjUFqt1zNrxajDT1/7YDu/TOH4435V1r9t6UXHP/J+1JW9rq//qa+J3HdvJbeDoCwvM+Bl1eX1hMq/UFV4vgIGdEj/0kRb3qy3q10lqUaMtYNTpOlPb9UdwWsdm6g5c7M7oOpMJGlGMkEEnT5+ltQFXQkWXCSU+nz7yUgoZrm6qPGvb7gq5/uCeefL0nnsWic2jbbi26x01k6BrTeL0tfyD3fusdU3nEf+Uk7Bw3S1Ei0XepLomu3Xslr2nJlpucWjroyda+n9rW6dX9+LELXyLK5Ndff3C2zbgC12vN/2xnWzSre/beutJnvpf57H/+wmw9tFAHYI//IQwTbqrCaJe5Gf+97Ztepl4u/pk6Yvyy3bNJiaKpSCEZJNi5fM287rfaVu6/TqNvl78b33U2BHR8q2Of6qXKl/7u8XZbPzvfVPtXOgTjHS7yv6h2tTy2VTxI/qzJx7xvipvu9dsXItdB7psV89iPNfXRnymWWr6zZU1kWFdr63+P14f3S4Xn7Ivu/dKZLACkHx+lGlbbSn9qtO4/GFsrdL5umfjjM6r09v/o4hVjBc2j7RB6h3ttJhR40NMp0VtXS/7f/mZ3Chf2dl+H0ifVfV8oOwfui36C4J125B/UbjdNq9bV/ITHxiAge0zsDPihxMtsgc35QN6LWrk9wWmOp0XP/KdH0s43okV6tdY5NkbsiNDiRG+DquKH2FXh/oZ3NbOD33NCx32Iaz3zJ2bt82TB687YSYdk1l150frg1l/cOv/xZetSYxPJ4tRiVFrMusWuUML1QuZ0OTtsvX8+tob8Uxv9e2XfDMZv40qJvu2zuWk8dLbKPFSr7qObrHtn+Ehk+5KgAjtdhNlO9FttClN8nOfCgP9r/kE2ZVdTaJD3WWSLXGQV6mPm6TryalqcxmbC+GrKL+3zLwvVf3FtbvBmrIX82Sx1eW3+2YrLq0YRPuqzIx1ua7rmtXFtjHnrFX2pV1z9S7ZaftssH+IH6pv3jXDRSwzP+mY+f9b8bh4P3lfyBhRle/6XqNdYdE85rM0ftg252NCKqsdj3S/9t2277l2yfijYi/l5u0SoUD85NupPy+z9LovNWy7MgbZSf6y9dTl5Av3ht8yu8mOtKt8bY4PzTh6W6XokuqX37d2s8/kPj9cxHXHeCFU2c8g93nl6533j7wtqY0Nfy9Tf3Z+8E36MryQFl6uAAMzEz/CLozGTgQnWqhnU/jdGuk5HaWoUaaXD98ynbvunvGRbEna/NXvJFmo3SbufiVuyO4NfeQkHVexuzHsMRYRILRY0bkjM/b+xAeeBuFFbEl+ee/Fj9vmiTuSc8M8eX7PPJGjMAL3iudBq8lLMZl1kzy1KK3Su/L9h30+yap3fri88RzzxImA+8BfrPA8kyH7+eTETbrtr7WEurl6qjY7PqJf/GLOHvnIuNKTRv1/mW7qe8fywix/lKmoly6vqJdtp/2VGj2Ja01O3X07IW9M9pOvSp8O1MPWyfkzLTpLznp9K+3JFq2+bPnVB593iV97EZtDr9uIh1skJB9Ui78pi6DgB/urO2X/835o983Mv67d9YLMpnHxreJepi3KGORshIsYg55xOt6famc4nWtf9e120R5Xpr/W2z9UvYZ8lvK3ytB1LX2s7/X8v5WxUvpq/u12fGaF68eyqA/1itfGfZbGD5+37bsxX/X4I8REdoRO2wE6bCv2G9fvij439GsvWV/2sY0sBFtxAZ2l7amPS6PHjjyd92P6TIv1buyiS/cKEd/6L8Yyt+/z+LjEesc+ULQvXHd10n0ts12yYp+p1ap/qx7p2jZiXTLq2q7r7v7X/SNvy8bEjxXneFl8Y4ySz7iPL2AABnaVgdmJH13nn9Xhj7WoB5hW10/MqRIinKihfylGCSVdJxPi4hdltMgii5RoIz1M1QdXbOQiSXVsxX1I5EdUnMARdoTYIydyHMXb9Wn9cz2sSGKfGdInfsjujySm+GMyaeeJPtLinv+hhBYvvIht6bTe36tM8NzCU75Nr8SJMMGJ9/VEt7znvx2RRZif7OhvTHReqffYq8SrjONYvqH7+eTExs/7wE4m63s+vmFC9/Yb5ms9gZPJhJ0AySIxTIbkfK97lXuSfvQ19J+M/6E2Tbin62jL15Puvgm3a0v46dtGG9LEsM2Cn+C37uUT9yHxoz159DaFNflGM/lcsTbXeFTiRxAbhC+JT+x7ti+pdjmGxLe5P2t/jPXNfCFX993y+Ri+P4i/UxwaCyhpRykojvQB+SxYZUzzfbbsE3mdfd1Lf9o8JVvSVxpppX+otjjfNfpK7G8ST+WPlr8znyr77bbZem9jrAw+LPpQrFuj/XHBPDamiLim/CACYLSvGM+vlbEdeB/mBCvvCu3zvXDdF0/drsIXebyLnVFF2r54lzYyQV7qVnEo44X+XFYLdxvPLE9Ib9tSMOD6j25j2PEhY4K8RpFH4i3+ysYyX45Omz6TB2Jbxmbjsa7rlc0H5AHf4u/YtuRT347c36uwbIWdjTNc+o/3+Zda+AN/wMCsGZih+LHEBxZwbQSuvl0yfZOnXbnuvs3ZpAiwE7yFhYwW9nai3vva74nHhY8XbiGTi9QXXocd63NXc6wcGXPCjpjNiWgj5e0YM3vVp/Y11q5dm/wCCIb3invGnI2soWBi98YFxA86f/zmb2++HZBdPFdM+JBvvDd65IX+sfKHI/G46A9E2TWI8DF5MnZFx8ph/8hOmIVB+LjoPnzR5e1zrFff1TvcPy46RpRHPGAABjbLAOIHi7uwuLMflCwaGGA2O8DgT/wJAzAAAzAAAxfLgBXf9+YLLebpK38JQ7+72H6Hv3fD34gfDKoMqjAAAzAAAzAAAzAAAzAAAzAAAzCw1wwgfgD4XgOOCrsbKixxIk4wAAMwAAMwAAMwAAMwAAPbZADxA/ED8QMGYAAGYAAGYAAGYAAGYAAGYAAG9poBxA8A32vAt6kcYhtlGgZgAAZgAAZgAAZgAAZgAAZ2gwHED8QPxA8YgAEYgAEYgAEYgAEYgAEYgAEY2GsGED8AfK8BR4XdDRWWOBEnGIABGIABGIABGIABGICBbTIwS/Hjrbe/MN/c+Sr8fWY+RKBAoGgwYH/KbbFYmNMjBonpg8SBOXm2cH7jZ/DgZjo3+ApfwQAMwAAMwAAMwAAM7DYD8xM/fnDffHnnC/PxD3bbsXSM7cdvSPw4fLy4+N+4Pzp1ooIVZORvaYHB2nh2Yg4aYs8mmHI+26L9TdQRG9vvO/gYH8MADMAADMAADMAADFw1BuYnfvz4M/PN7fvmrS0t/q5agK9qey9P/Dg1h8LutRNztlhShNmy+HEpfhF/8MoOLhiAARiAARiAARiAARiAgUtiYHbihzvy0iN+5MdhvjIPf6zUOhFN3M6RcGTm1vszAOvI/Oz5783P73bmz5/+3nx6bv9+Z352U9V9NPiH5tTuJnh8uNn2jPrsp+bj23L86KtclLJ5b71vdEy+fPunWf0+vKXyhmNMKU1he6lYBX+4HRZn5uRa8qXsBpGdF/E1853Or8UJeyTkzJwchx0cjw+NFQusjUlHa9zODyV+2LiW19z7tDMk2g1CSaxv3D2i7aUjKy7dCjs4ED8SK1dVGKTdMAADMAADMAADMAADMHAVGZiN+NFaKNvnfsTFsl1s31HP/3Dv1fEY994utkOa2Ryf8eKHFT1+8eDIiQNOBHn6y0woGIZvi+KHEyXaPnvr7c/U8SMvVuTx+MoJIK7uzfhIvILQoQQOF+/4vrA9KgbJYGX9kosf4sf+Rb4XENJxFO9bL0IEccGKCmrXhhNUMvFEyi9eS6HDtsPZkToemlNtp5XeXusRNQ6OT5XQU7ajqEuPD/v9Mi2/+JdX/AUDMAADMAADMAADMAADMLBLDMxG/BCntXd+tBfHdgGdL8aVGNL5PNnukJ4FoZS9ndcgfmix4+6/mU+f/8b88br16dstoBfYQ2WUAtKIz1xsRLCwebMdOu+bh+pZLbm40fkdIjG9TSvCSBgwKntTBpIVxA/rs0JcSOKGFxScEOJ863ddpPsjdWqJGV1/HbvWvQHxo+Rzcr0iA6p98dpIm0i3hEiJL0tGeQ8TMAADMAADMAADMAADc2Fgp8SPUsioxI+4uJ4TYOnYy1yCHusxJjjoI0Ty6zsTxQ9/HEYEjkK8atm19peOX7+w0LvDwQkU6dhJPGbiBCMlDmxK/HB2ZOdHF4/RxHLLnStD4oezVdR9otBl/bEoy0LYQNiAARiAARiAARiAARiAARi4IgzslPgRd3m44BQL6rGF/KUFdIviR2sxvMyzQQZ9ZndnqJ01Xdi9MVH86KxtEUxKYcOJHyKMrCNUrSh+FDs/ohjUbV78cLszFmoHSfjfl9mof6/4YdPq55N0hp0f67BD3sQ9vsAXMAADMAADMAADMAAD+8/AjogfYeGtj0q4xbVaQA8u5DcRSL8wXv7b802IH37hu7UHnjaFIS9+xN02sltjkvgxduTI37cPTF1vkGmIB6EtThhoihy1iJDqMFX86GHB7SpRDygNu0zkoaZlnZq7MYqdIqluvt5iyz9LZPmH4PbuiGkysIl+g40UQ3yBL2AABmAABmAABmAABmDgshjYGfHDOkj/ssg36vkSznlbFz/CN+1Tf/kjLiZ3Vfwo/f2Z+fjtL/IHnGbHVPJnflQ7P8rdH+H5Inp3SL6zZ2BQCKJCOjrSOtIhAkU4JpIdDwliUvxFFfk1l02IH/pYSjru4jt4Xu7Z8Unzga1+t4jYSWJKef3k+GzpXwBC/BjgKvZZ0lzWBxLlwh4MwAAMwAAMwAAMwMC2GJid+LGthm7Erlt0lwta4Kx929r5URxTYqG55q6X1bhD/FjNbzXj2MEnMAADMAADMAADMAADMLBLDCB+TFqEyzf2CB/T4C6OzFgfh2Mz8RjNJL8zmEzz93Q/ud0j2S6Y6Xk3XRfs4XsYgAEYgAEYgAEYgAEYgIGLYuDKix9//OB35tPz3/f8/c787CYwrgRj+cDTO18ZhI85sJSOA50dH1zK7pOVeEIsI1YwAAMwAAMwAAMwAAMwAANrMHDlxQ8WYnNYkFMHOIQBGIABGIABGIABGIABGIABGNgeA4gfayhHgLk9MPEtvoUBGIABGIABGIABGIABGIABGNgUA7MRP370Zz8yL73y0qX8bcqZ2KFjwgAMwAAMwAAMwAAMwAAMwAAMwMD8GED8eOUlzk2x+wUGYAAGYAAGYAAGYAAGYAAGYAAG9pgBxA/EDzr4HndwFOf5Kc7EhJjAAAzAAAzAAAzAAAzAwMUzgPiB+IH4gfgBAzAAAzAAAzAAAzAAAzAAAzCw1wwgfqwtfvifDj096leuDh8vzGLh/y7150Vv3jYvzu+ZO32d+u49c/78trned39b149OzeLZiTnYlv0V7B4cn7mYDcXVqbUzrDsqcn9fxDe77xs/np6Zk2srtOXaiTmzY/Hjw73+YIfzFdgInxNu7IeP+fSPK/0Ze2hO7Xg1s/kR48tq48v1B8fm/PyReXJ3tfzjfh9fj7RtzJez7ftsLBbWNyvON1ZYe7TjM1bHS7jv5lKn5nBDbbSfu0PrYzvv61+P2RgtVxfEDxE/Vg7k9MHGBm8ouCtDb0WL80fm/OmN4QnLUuLHDfPE2lR/Lx68Pmx/lU7g/L7BgcVOlMpO0Lo2UtddEz/qBeF0LlfmbsSH27fr25jH+yI/qMKEIQibVuDsH5wv4cPpEuIj/UbE3jw2m/FBzfoSdvdR/JA2RQ6L8XStxeO+jiMydoQvJpTYsXXxo2+uIXFUdenWit0S/eISxory8yEfO9REdts+6ImHq09LdNh2fbJYhM+YVj2ydBcV69fNw+ePTD4XbF27qPqocmQevO05a6/fvR+GhI1tL+TdZ6MeP6Suo8xeEmduTaLXGcfm4U0V064z2/ZZOQ7l7/3nxObXbfnccfP2cx/qNm1sHdocN+VztZiDBA6Hy/Y+6Z1Du/Ladm37esdr6QPFK+LHHogfd55aJdmKFQO7OmzglxY/1EAUBqmhgV13sGn/b2FgsYP8BsSPafXvzFwmp25QeaaVU+/b3oGkGAgmt3dW+QI/z86U6GAH0P4BcnPt3AK7s/Jt/4fnkA/LhaObjM1m4r5am4bae/n3RiYMlqnRie+QX/ZxHAkTT71IODqNY0jJ8MZj3Jw0dqYLk7uzZxe48J/JmOPGiexz+9CcSnzW4neI7XBvJB7lDrPhCfyE8mbi89W4bgkdrWuX4Acnfqg5cJiz5kLNNus1Ln6s5vOJdW7NfYW1bfchKWepV/8F62bXFBN9NbGeyy6oJ8XXjTf5F+EHx6er7WSd2A5dr42NX61x0157dmIOe3ZxjJbdsqnbOMLxqH1lC/Hjlf/HbyuM35rJEZV8AeU6QUyj78nkMEyoXBo1eVHO7gtMbrudV8Ob/28HEC9SeBGk6PyVGq4+HJSqGnd4xGMvya4vrx6oRJGVvHEQs2VGO6k+Lr3endILsvi0M9Zn/ltk7fNkM/dFmOhnk6jyWr04zuOi49guM4/XBrekij/C4OjaLRNAxVHV5s776ez4RG39Sj6U9Hm9VdtsuY9PzMkz6+szc3IUjgZki1btl3zgFvurvaZ6Lh3rLuQ99gOuPzZVxteniTsRYpvs9TNzcmzFMn8MQsrXglHuM9U3XYyUD6v42HqcmkMdy1h24Nf6PY4pjV0jxf3824E5xiOo74pZ57+s3UU8BtMWar72ZdnHnf8L20Uaia/1ee5LH4881nk87D2bR9vQnKzGvuLA+ki3T/ll0LZjRHGpOdT2FGe5OFz4TMVKt1VzGn1ny1bpu26k7xXxGGyXbkfrfylbt3Giz2om888Td//x4UCs+33WyZh01Prsyvts8mkYR1xbTs2JnjhKO6MPChuxzbZOa4xn0X7ui8kxknquEA8RfUqRIZYdbNsJtfgsMujqvaV4hFjmZZWM5/HI0oZ4Hrp+EeYxWX8J45vqm3pMycajGGcVH+3r8BkmPtveeNUSOvJr1TxPfelm7714cDvsKr5n7sj8VM8L5VrYwRHnlWG+asUMO9dtzjvLLwCdLZnzlnPaztmJ4ojMW4No4uzrenW+nVKunuPq+sT753qHjJ8/+3vqS8XY7/T9R8X82d67Z+7oelXza98HND+OhZKRyFr6zOjnbMtjShYbxXXTJ6XPbCzsNe03iXOy1btGsWVknJX2rY2yrye79rPR9nXtu8r3sR0pn42J+1xt9eeQftz2wJhjbdjxMsY5zWN0XfX9/AjwcrbzuYSa/1nu1Fg3rWzvJ2m/jGX5aw/n4us45uY+z234e4gfU3Z+XDsxp8cH8ciHC2QMrHzwpoVQH9zNoDpQi4Eo2h4PoOvAYSBsf+ioTq0+hBwM5eAjg78DyQ4qKq9LW75Xg42+X5YTwCzr1/SHSys+TYuUPp9WUBf+dPeza/WA1q5Hna62te63qkV846AVeHAdOXFVtVU6fBQ//GDsB+FikBhiOJRr8zk/u0WKbr+3lSZ2foCcOtgP1VsWC3YwFvuTY50tNMRPut52MNaKum5HYMz2tTBBiB9m8sGUcVMsxEPZTixqPnvC+yh9OOiybdzVN5s2jkVZ/r20qeCkmpTPJR7qw0/3Y/Fn9cFf+KTBe7Nv9nzAuXFZldXHXdPmiP/lw1sYzT8Dyvgs+T70v8hKww99bfETNLuwSp8hVVprv+czpb9/SBt8jJp9vbJb9r2z7T1bZWWfFcypMVT8NhbrYZ95+4PjWQ+/XgSwcTw0pxKvwseHj3Wcdb8P5a48nkm8V3xdOR7luNqMq/N4AAAgAElEQVQoX2xL33bvkx+2Fo/WVuosHiVLOh6ykyd8oeA+I1r3UzuEv/K1Pa4VtoLAko1P6jN1c+NVLnT4uubXynme3nHsF6N2HhmEBDt3zeaLN8wTLTgUc1SfP4kK7r0IAUVaVzdnW+atxZy2a4gfTnAJ89osrz1+cU8dycjbrP2gxZoyll1X16ELokoUYURkiX6QBb7Mt/37rJy+MUXGt4zbRh8T1qWP6c/vrY0pZbva9Rry2Xlco9Tx8KyIzwrbRWy9EFKkHfCZnyenZ4dN719lvy3qJXMkJWbmtkfGnLF5pVor1GyO2C7nJRVzPr+fK9h21vPX5txLGJXXAb/bOrfHQ/GjroNca78ifkwRPyQo8poFveFsG7zGZLQVeHstn1i2oalB9QG1inMcNLMPkWJgt3XP7vvBIhtA7YeHfJC4QTqp6+eZol4PNLZ+qS52UAsDibKZ7tu6N/wm/pWFpR6IRzpE9E/L99m12r+tuLRV30adp9Yrtq3dEV39XT31gNEor8dObINl002cR/JqhlUboh03mQp1iTZT3YcHoJQuxqWn3sJBpj6r+gznV220eRwvdXy1jVRvlVf5It33QtBY33Tpg8ouE09fXl0PbVvXqU7v65bbUz6dbTzCB5P61iFvg/VJMdkvYp34s+1tpLccqXhpP/pYFPYb3OVl2HLa/tbpqtj11EHXZ/L/1gfZREGx2ah/y66tq3ybkzO7nEBbtXNonC5iV46ZU+PRas/otZV91o61Lq/ywUis8/Te/uB41mdPXbfxdHGsfKzGgWwiq5hRdnTdos3IVD1GaT8s9f/K8ZgofrjPNGn7cL11m6VvrxSPONakz2Q9JrhxKKtXMTF3ccjnd1X+Cc+JytvjfeCuFWXr421VHsXEUnGNrIjv/dxP726Q/2Ue6hadceGezzvTPTX/zOalUo682rmkiBfh+Q89tpsL2ExsyG1ZP2RzUieepLJElMjmyMofqS1SV9UmlS73d12HZr0zn9R5snrbskbGidH7zUXlxYwpti3CUNvXdftbscnjYfP0P1jWphVefXzq2FV9SMXU9uPsC4XJ/cuOXfmYkPMRvoDUfVvbtv/re824CY/2tR4rszFItWlsPKvy6XpZO8X7Kn32eaXrWPxf2Cn9M8Zyq9zKRtcZxI9J4keY0KhJfRI31AAhIPUErw5Ky67+pqCAQuzH13JQyDtwNUBmA2qe1sGhhIpcbS0Hkkbe7IPE3vcfInee3jNPnnohxNYnDW5Dg0DDp7HNIz5xk7BiAZRdmzoY1OlkIpUtLsY+dKbW26Zbw5Zm6/CxnayVPmyxFvykyk12VPud/9LiShZZ2YRymXZmact6jsS3N6+1Y9uj6m3Tur5Y1N2JJKpc1V/TB17LXwN9U8qJgl1RD/mQUh9c1tfRl25skUm2zTvwATnbeOST/2qCLj7KxtFiEqFYdP0h+lNxoeJVfqhpn+bCS8qfGJdrigXFl06XuAh5BupQ1mn0vW6zKn80XyttYCNr+5D9Vkwyn7d94+pW2a2ZnxKPldup+tJ0G749mX8KP47GetBnA/6ScvrY0dft/zYOpY9DfPW44duiylV2Ulv8fZ3P/y9jjvSFFV/LekpbJ7xW40SZp7JdcObaW4ylkWHll9KuvFf+qjny+b2Pi3IbsXA+lbIH7QY/axs9PKcYpti0rmlWqvtT6iL+GHz1c7/WwlGu5YvQ5cUPvRguj4kM2e4XEUTQKOfLDfEjfvmXfB2ZcPPntFB3ddNCTNixkea4DRuZGBPuZ/PucC2bq4/UuzG3iHWWWFZ9qK5bxYwWvhU/Kd2GxxQnPqkvc6XuLZ81fJ2x4fwnca/bWjPm46pj5z67pC/Hunhbem5Q+bpIm98fmduNCQR6vNDzKFVP/ZnbGuN76z5iu8qnmLBtTFwEfzeYq2w0fVWMs2Waotzcv416lPnDe8SPCeKHg0l/MGXOb3y4NoJuA1QHvpG3J1BlgN37MFiIahpfw4C8OfEjKO7xg2H8A9ALHTfME5vn7j3z5G4SRHxbhto+dK8eyDLfZLFpdcK6Y9VxsfnqdLsifvhFo3+Ghwg1gwwrXpMvVPvV/czXy7Dam3aNWOsP5zD4+ueeyITetiEdp7F1TwO0Klcx07zfW/ecRZc3jhPKfyF/sh3qke2C0OlV3VplzzYe2r/Sh5SIo/zcz1Hyg2VR+M3ST7aTx15sJMYlft7f+YI4v6Zj5+xMqoPYH3ndcDxdX1eTIb0oEh/416H+IXUeYLGqd4pdXo61VZdVp5EyJ7xWZU/IE/qS80/sp3W+4VjX7cjTD/hL+nIfO9l1ayc8w0Pq6u7nfSKxrMpVdlLd1H2pxyZf14iH4zPb+VTEpLKtOdtiPIJ/nA9tDMp6lO9Lf6o4TGG9j8sUw+SXWCdVpr5W5VmyLv31HZ/7ZYtQWz+1kE/3vB232Czvy65h17Z84Z/yB1+ovC3xw6WP9nJbto3ZHLklQkT/2rz5wryqS2NBXvuxrkOr3vm1Ok9Wb1vHMRbH7mdzI+FMjRmKn8SWuh/9JHlXe7Xtqn+1sm7/tJ0fw+KHiHV1jHzdUzvrtqRxt77XZ89f9z4b+uJw0PZIHF2de+eVvq699kdsV/kUE7I2GhPXKxstbjK7Df8uW89WGez8eMm8JOJHmJy1Jts2YAnWAG8ErBwA/Pt8It0PXQ1rI9gOhuIbUnlYaaY8y0N8/E4LNzhHwcIP3vr4SjbQuA8R/aClcsDx+UUZzT9U8nJtJ7e2n9gHW9mfx7W27Q6Q+CHU7w89QLRikQYWiYMsdMVvfjKU8pbxyO97/7cWSXqCJbbDljRZWPTExU/mNDMpf6p/49pIp3Z5e8rMBxXb5jNz9ixNlAcZVuUmO7r93mctpnV7XBlDOxaag5CPT4pXwy9BOLQDa56uzGvPyp+ZsziRzmMdd4G4+Km8arDVH3iT+mZsk7eXxgntv7QDRervbMuiJrYvsTxc9lzjUYof4X1sZ+mj/lifHqnnHkQfh/QqXpq//H9fVovZxHgqv/K37RNxjK/bVW7xdGW7PBfb7/M22/Y02HD+SmylPEP9I/kmHzvSdT/OyS67ENvY91Q6F7+eeFyGz8IYmrEx9GsvGW9jPvPtlH6efK39UdgQvrNy/ILm7NlZ2l5dxjH4zrdDlavsOK7D51XFuJSrX13eeq7Rbodqk61L7Ofq+iTbgZ0sv3omUmXb+k94Lnwp9ZfP6EIgb7ejsKHrbP8Pfrefpxkzrb6m86o4tMvN/eTik/nA39cxjHZCOxNneRuqPK26BBujcdNtCgv8fOGYCyJD884kGAyIH3HO6ueR6bkOSx57CV8OypzV72ZOu4/9HFYJGhPEj2hL5svF/DubU2d+k1iX82p73c+tk09zf+a7sL0dW05KL4zKWCxlqVcXa+kz6rqqY8WM7juKH53O/a8+JyOfym6cdzXYztOXfpB6tnym+AllJbZ8PhcLxVJWlmOjXxxxaatxR+rT+iI73ZNyeufDYdxOfdfOL9Kz6VrzE7HZ/HxXvnbxUH72dcjjXqZZzbYfb9Icyb7PyxFBRI+Z/WUr/w343dbV2Yjju8rn/KA+B5VfUhtTenZ+RPEjqKdxK5EKpHxIhHun9tclYocPH9wxX/sDslTEKiBU/urDSMpXULeUTx9gP4D4QdoPEGnroL2nH+rj0/r74WnScbCoBxz/YZHyy4dHsp/A8vdkcAn1iLZDOjcItAbsKQCL31WcBHbxl/i07Chh8HExCU/1j/HQ9yR/1qml09tttuHXPLK42LaFNNX15J9WZxxV7237pG2F7XLAdAOEFgskX2hTxrAabJKdcjDT7fZbjPXg7doTfBd9KfEYfJ0S6yA66fY4m3XecrAXP/j+539JwQsUKq/zjeewHFjz/GpR0OIk42zMX/n9fMeK56QsO/drnr8WhtJ4lucbYVBPeAbi5v1cilGtDyZfz1QH6bdpm3q6F+oWWC2vl/6QmB4qFvy1YHskHjatLiO3n48r7p62p5hJfTnEpOib6X6P71X/600r/bewndfZt1u3Sezl6dKYW163vzSSBDypb86ati8ceP5sOvFbHefarrV/8T5zPhF/yhivYjsW62GfqXFloP9EgdyVH3xWMVX7RvvbzhNOwq8OyETTjcnKTtmWvO5qPIt1lbglRoShwdc1GPZ2pVwZF1T5lW3NWRhzJI4LPcZbvtaIR+UTYVv6heI3lq/GRBWHlu+qWMQ5Zap3Np7ZMhSncS4Qytb9soy7T6t8mo2Z5XXdvvL/cmFu75fXinnn3dvmRZh3pgWqT+PmqXr3RhACZBez/2UYmUdOET/0sZSUL/o/CCLO/tMbS+z8CGWHX6CxXyI+fHDcs0sh1SEKFLrcaEPXT8/Fy90P9Vy8Ej8C55qB2ObAcc6bxLzsd/qzU/UdxXLJVm63Maa4vPX1fP3gfRb9Zes86DPFT2hfYisx6wSQ6O8kfDnfVPbT2sb7zo+/1Ty3uYs/lSl+l7G6lT8f//N5iM03FMf4mdkac+TzNI4J9hcgy3GriLkeU4r8/nNd2qbzWZvWP4Gjaoz2eRwb2ZxF2yjGsxDH4fYrJkN68bd7VZxm1xtpET+0+NFw0JgDuS8dY5VXD/JwR1/F7mXnCR08G1Quu04XUH74kGsO9leub+UT9EsZJ4hH/IWui/H/Fe33a/VtfHYxbE4f/92kPZuwTs87t7ZQn+HYEeth/+wUP3YBKovRtcbkPfLJmn6oF+/4Zqt9Yky86BFZpE7DwkkeO8QPxI8LXiDkAPpvJEplskiz5gAmHeMiXqMKfqWEj7CAqXZm7G4c12flMsUP4rF+/JZj92r2++V8VMYEn63nv9Kfa793i6f6G9q17e7Q5/eVaSuxvtx575b6hBOzrtTcc9tjqJ9L7d8XtNv22yr2+3fauHHZCSP9a8VlhSrED8SPy/8QGFHzrsyEZEsfiPhvlYF43TyXKX6sW3fy02dgAAZgAAZgYLcY8It1dt9uklvmchfRB6x4MSQyWWGvn2sbIznKNS32iB+IH5cvfrDoJwYwAAMwAAMwAAMwAAMwAAMwAANbZADxA/GDDrbFDnYRiillTFN68RN+ggEYgAEYgAEYgAEYgIGry8BsxA8gvLoQEntiDwMwAAMwAAMwAAMwAAMwAAMwsE0GED/41p+dHzAAAzAAAzAAAzAAAzAAAzAAAzCw1wwgfgD4XgO+TeUQ2yjTMAADMAADMAADMAADMAADMLAbDCB+IH4gfsAADMAADMAADMAADMAADMAADMDAXjMwK/HD/Ub1YmEW/E71XkOHMrobyihxIk4wAAMwAAMwAAMwAAMwAAP7wsCsxA/vVH6nel/goh0MlDAAAzAAAzAAAzAAAzAAAzAAA3NgYIbiR2cOjs/M2fEBux/YdgUDMAADMAADMAADMAADMAADMAADMLA2A4gfQLQ2RHNQ8agDajIMwAAMwAAMwAAMwAAMwAAMwEAfA4gfiB+IHzAAAzAAAzAAAzAAAzAAAzAAAzCw1wzMUvzojk7N4tmJOQC+vYavT5HjOmotDMAADMAADMAADMAADMAADMDAJhmYp/hhRQ8rgCwWPPsDAQgBCAZgAAZgAAZgAAZgAAZgAAZgAAbWYmCW4od94Ck/d4vKt0mVD1vwBAMwAAMwAAMwAAMwAAMwAANXl4HZih/82svVhZIBidjDAAzAAAzAAAzAAAzAAAzAAAxskgHED7YOrbV1aJMwYovBDQZgAAZgAAZgAAZgAAZgAAZgYBsMIH4gfiB+wAAMwAAMwAAMwAAMwAAMwAAMwMBeMzBD8ePAnDxbmNMj1K5tqF3YhCsYgAEYgAEYgAEYgAEYgAEYgIGrxsCsxI/Dxwv3Cy/8zC0d8ap1RNoL8zAAAzAAAzAAAzAAAzAAAzCwPQZmJX4Q6O0FGt/iWxiAARiAARiAARiAARiAARiAgavKAOIH57r2+lzXVe3YtJsPNRiAARiAARiAARiAARiAARhIDCB+IH4gfsAADMAADMAADMAADMAADMAADMDAXjOA+AHgew04SmdSOvEFvoABGIABGIABGIABGIABGLiqDCB+IH4gfsAADMAADMAADMAADMAADMAADMDAXjOA+AHgew34VVU1aTeKPgzAAAzAAAzAAAzAAAzAAAwkBvZG/Dg4PjOLx4e9C3l3fxF+Sncg3fbheN08fP7IPLmbgpCVefO2eXF+z9y5cFHm0JwuzszJNVWvN98x396/ZT55tTPvXrtlvr3/jvko1utl88nRB+bb914zXfea+fz+B+bray9n/rc/XXx6pOzFvFzLYo5fMm7wDf0DBmAABmAABmAABmAABmBg0wzMTPw4MCfPVlswj4kf4rip6ST95FcnWjwy589vm+uDi9llxA+f9vz8kYl/T29sYaHo/X52fJDbXlP86K6dmLNSUBn0DR18Mm/4MWcVf+APGIABGIABGIABGIABGICBAQYQPwacs8xC9PqDY/PiwQ3z8PmxeXhzaBG/vPiRdoncME/OH5kXD17fKNROEHp2Yg5KX7z6hvladntYIeToDfOuSvPRe7Lbw+8C+fzNRruPTs2iZVvZWcbPpG34GF9utD/AGIzBAAzAAAzAAAzAAAzAwP4xMBvxwx6RWMixFPWa7UawC2l1Tx+pkB0d2o6+L/BKOnkfXzPbxfGP0cVlEjS8CFKKE160iLs3zotjL3fvpZ0dbpeHHHtJdn09/ftM/JAdJ7I7RHaG9B2fsWVlu1Max11G27tMR1h9N0+MzUbrs0zdSUsMYAAGYAAGYAAGYAAGYAAGYGAfGJiN+OGdObRQPjSn+lkdTqw4NYdhYexEjcXCRLGkuC/Baoof5fGMnrxio3rVQkMlLpSCRSFouLxqt4i21bXSauHEiyrtnSH2nrIrAkJZP9vWLe/MaPpc6sMruxZgAAZgAAZgAAZgAAZgAAZgAAa2zMAOiR+l2pbvWKgX2PZ+/fyQOl1n7LUomjiHD4kwZT06Y3d7nMuOi64QHUqxoRA07jwtjrE0xI+0YyQXM1y52S6OznSxPCuchPTKZl5X3/ahB8VWQs8qQF6AwLKReq7SNvIwSMMADMAADMAADMAADMAADMDA7BnYKfFDH2nxx1/S8ZRa1GgLGHW6ztR2/RGc1rGZepFd7M7oOpMJGlGMENEkT5+ltR1GCRVdJpT4fPrISylkuLqp8qxtuyvk+oN75snTe+5ZJDaPtuHarnfUbKPTup01aZdO7UPxDa/4BgZgAAZgAAZgAAZgAAZgAAZgYPMM7Iz44USLhV5AT9n5kcQRgadP/Mh3fizhaCdWqF9jkWdvyI4MJUb4OqwqfoRdHepncFs7P/Q1L3TYh7DeM3du3jZPHrzuhJl0TIadH8IFr0swvw2BDJuzV8rpI/QRGIABGIABGIABGICBXWZgZuJH2IXR2IngRAv1bAq/WyOJG6WoUaaXIJXp3HX3jI9kS9Lmr34nyaL86dZK3JDdG/rISTquYndj2GMsIkBosaJzR2bs/YkPPA3Ci9iS/PLeix+3zRN3JOeGefL8nnkiR2FksXkBR1KaPpfyeWXRCwMwAAMwAAMwAAMwAAMwAAMwsGUGZid+dJ1/Vof8qkvakVFePzGnSohwC2z1SzD5QzxFuCh+UUaLLE4A0ff1LhOr8ImNXCSpjq24gOVHVJzAEXaE2CMnchzFiys+rX+uhxVJ7DND+sQP2f2RxBR/TCbtPNFHWtzzP5TQ4oUXsS2qZfvZKLnwI2lXeW0fP9qc/VXqRB78DwMwAAMwAAMwAAMwAAMwAANXiYEZih8AeNEA9u2S2Ug9LmBnyUbquWWVkTrSr2EABmAABmAABmAABmAABmDg8hhA/GDRG3e1pF02GwKy/AlhfM1WNhiAARiAARiAARiAARiAARiAgUtgAPHjEpw+T7Uvf4DsJupon8sy7RdzNiS2EEsGURiAARiAARiAARiAARiAARiAgQYDiB8Np2xi4Y8NBA0YgAEYgAEYgAEYgAEYgAEYgAEYmAcDiB+IH6iCMAADMAADMAADMAADMAADMAADMLDXDCB+bBnw69//A7OLf6iT81AniQNxgAEYgAEYgAEYgAEYgAEYgIH1GUD8QPxoijN0rvU7Fz7EhzAAAzAAAzAAAzAAAzAAAzAwDwYQPxA/ED+2zACD3TwGO+JAHGAABmAABmAABmAABmDg6jKA+LHlhe8uHnmxdWZQuLqDArEn9jAAAzAAAzAAAzAAAzAAA/vGAOIH4sfu7/y4e8+cP79trm85lrbzX39wbM6f3ugVh+48fWTOz/3fiwev96YbH0g2/9PD42VuaIC/dmLOFqfm8ALicWFtqtpyYE6eDf+Us/2p58XC/50dHyzJgo3/vvtwQ7xVscHu5fULfI/vYQAGYAAGYAAG5svAfokfP/7MfHP7vnlrRpPhTez8+B//a2GeP/hPTZFibfu/+Cez+D+fmv9WPJh1tNPevG1ehEW+LPbPz++ZO5fh+yXEDydeVPV+NFk8GRM/xG9WBFld/PAL6+UXzOsMNHaxnRbrdtF+eqTtjS/2pe3dpsWPTdvTjK5se7o/rAiySiwPjs/M4tmJOdD15f8lRSTNMP/HPgpHcAQDMAADMAADMHAFGUD82HLQ1xYnvv8HZr7ixyWJHWXMlhA/0uT/hnly/sg8ubvcgugixI+LX/ROEVumL/YRP3KmVhU/LKvr5E2s5/XhOv6AARiAARiAARiAARi4igzMSPz4qfn49lfm4Y878+Gtr8w3d+zfF+bjHygw7c4Od72494P75st4XfLa18/Mh26hnGxLkN96+wvzza33veLn8tu075uHYkftILFpv3z7p6pevp5ia+jViR9/86l5rr9V/19/l3ZxVDsv/s7878Vvza//5g/Mf3vw27htXrbPu9eY36b9J/M/tH29i2PA9nWdR9fN2pvyzA+386Nf/LAigd35oI+BVEKDFS3ULoxsp0S5s6Q4alLt4MiOvbxuHj5Px0/ax1QGxI+iXrreIn4MtqvrXLuz9ohgk9k+Ng9vKr5dmqHjLsXujGpXwNj9sqzw3u1+ODMn19r39fENzWG2m+HotGBVH9kYqlfd3rTgL/JFTvvrOtQX83vTbDshqlmuiEHajm5z8mVqT7rm6pL5rKdNK+9MKcoS/njlWx4YgAEYgAEYgAEYgIErysDsxA8rblihwS4OnAiSCRRKDHFCiIgbYaLfe+xlivihBRUvglghxtbDCSWqXu69EkfyRVW+6Lj+fStQLMz//sUfBMHDv4/HWIYEinAUpX/nh7e1CILF9e//J/Pr/6OOyEywfb1K4+s51CZ3b4L4YYUNEQCcaKAFCicCtBb/1n+lMOHfi63O5VXCi32vbDthIoolXgiJeWNHL8uQuN0wT2LezpRliegS7ZV1Cfabx16cz1SbW3ntgrgSNWzdyt0Z/v3i8WEcvHsX2bHN0sbyNdha9CzAXX5Z7Jd5O+N3eqi82YJ9rN5D4kcoK7PXKH+0fQN5hmxfOzGn6lkd+Y6c2mdOJFLxkD7UjIsrV/nMCSEt8WTA7+u0m7yx30iceB3oJ/ACLzAAAzAAAzAAA3vAwPzEDxE7rHOVmCG7L9IEtRY0dPqUzk7o6rROwJCyws4RETtsXiu8iAiTpbX1ijtFxieLbveG3o1hBQ0tOOj/ndhhBQ2/80OOzAyLH3laV57sDJlgO6uLeu5H7r9GO8udGXYHhxIgZIdEtJOJJX2ChC+nEkqsz6PA4fPq3Rjpns1vRQ0ljGR5dTv6xA+dRuwlwaJqVyXU+Pwt8cPmjaKJrVdXt8UtsBsL6K61OC4W7m7x3RROyja13+tdDtmuDlfX/kV4tbjX9Rqt94zFD9du5SvdriBGZc9FabW15+iK9XXu4yX8W9aL90xGYAAGYAAGYAAGYAAGYGCUgdmJH1qAiAtn2QUiR1LUa5ZeiSU67zTxo9hFouBZW/wQMULEBS1K6P83JX6I2DLB9nriRyEyKJ9VIkEmfgwLD1Vea3eq+NESZQphxrPRXwd9pMUfyxkSP2oBw9pviR+1XX80Rws5fbsHnPhRChvZYtwu0mU3gn9wabYw///bu5vcSI0wDMA38dGsXGOydKRskk0OYPkM4wPMMlLvWeYuRAV8UAWFu+O0R03xLEaMu2mon6ex61VRZH1TfjeywX3sMxy36/NZJXHs2jGvhh8flvuRw4+yPcdbfmJ2RiWs2PTH2Lab9pkCkfwWovh/rX13A7HoL9urv+iumteG2pABBhhggAEGGGjewKHCj5iJsfuH7KOGHxFGTOFHMRvkhoDicWd+fDb8qAcG0a9D+JHNIkmvL69VPjsHI0/9UxGyVAb280WtHn4M5ylmjqT9Pgo/yvejDnvhRznzY1u+3YFubVZB7bWo3xRg1AbTUcaPtkM5itCiMtifzrUZ3OchQK2MxWuPG34MQVTeBnm99mZ+5Pvvtc/ObJC9/ti0b/SxbfO/oPdMeH177dQm2oQBBhhggAEGrhk4TPgx3NKyXgB1/cf/cDtKti7I/P5428scnqSQJM0eKW57+ZqZH7Gw6HrNj/nnFH6s1uzoVre9FGFJzB6pzRKZFjH9L8cey1feOpNut5nhDAPV9SyA6yHDZvbGKpTYhgzZl3WavbHMiCiDimEGRazLETM95rBkDEfqi5xm59i5XWUJWcZ9x9ka++HHev9ot1r4Ma4fshwr9i22qb0rA+inpxQS5I9MHcOI8taJvH7j/mX4ETMZsrUm5u9I/tlpv9XtN0MYsHotlb0MSsbzdl3MkLhW7rKcw7GKeqZylfsU7TWU/9Z65XWM/+8fu6xvnCPqNf68tO/4c60/quHF8L261g+pjOvzRLlttw60iTZhgAEGGGCAAQYY2DdwnPAjDXIitJhve9kGFsMtKrX3p3U9htDj21/9r9WnvdQb6v/c9lJ72su82OkUZKSZHTHt/cef2zU/YiHT2Kebb6OJBaUEgIEAAATCSURBVE/zz8fCquP2+rHXT5VZPe3lw/Aje6LK8NSWZSbItfAjfSnHAGQ5RjErIkKN6WkwxXtTcDHekvJH/3vadw4/Uh9OAcj02Xzh1eViUAYq69fHY6cFW79tZ35kx83XOYmFWuOzsS3KPixyutT5n2KWSSr7/mA83psdFEHE+Ln5vU2AkI4dA/jVoDv6eH6qSSXsGkKG8hzLQD+OmxymY6f9IiRY6jSXrSj3Uz+uZzIZfn+pP961KOOq/BHAdF2/hBHpvDf+2zv2NHsmyv399a2/zPXK6zyWfWmPSp2nti32Kc6bjpG32VT2YrbJjfW5td72u92IttJWDDDAAAMMMMDA4Q08UPjR5h/2sWjp12xrQUkZfnz2vDcPHF0E7n4RKGdStPm9uLuvIUjYhiJ3P89P9l6dNfKTy3D0NlR+1xAGGGCAAQYYYICBZED48cUDic+GD7d9TvjR5oVsnFVQzBL4YqfHbceYjdJe8CEE80v6uN9LfafvGGCAAQYYYODxDAg/vnhQeVuI8dnZGsKPdi8qaVDf3oC+3f6698V9fevQvY/veCwywAADDDDAAAMMnMuA8OPQ4cdnQ5Prn3MhONeFQH/rbwYYYIABBhhggAEGGGjZgPBD+NHXZqe0jF7dXNQZYIABBhhggAEGGGCAgXMZKMIPnX+uztff+psBBhhggAEGGGCAAQYYYOAMBoQfXzzz4wyI1NHFkgEGGGCAAQYYYIABBhhg4JENCD+EH3d/VOsjg1c2F2QGGGCAAQYYYIABBhhg4HwGhB/CD+EHAwwwwAADDDDAAAMMMMAAA00b2IQfz6+Xvuu6vvv7rX/W+U13vrTzfGmnPtfnDDDAAAMMMMAAAwwwcEYDm/AjGuHlvesvr88G/wIgBhhggAEGGGCAAQYYYIABBhg4tIHd8OPpt+999/5y6MpFkGMr2WSAAQYYYIABBhhggAEGGGDgvAaEH9I7ARcDDDDAAAMMMMAAAwwwwAADTRsQfgDeNHDJ7nmTXX2v7xlggAEGGGCAAQYYYCAM7Icfv7z1l+57/yIcEA4wwAADDDDAAAMMMMAAAwwwwMCBDeyHH6lSQwDSWfvjwB0cKZetxJMBBhhggAEGGGCAAQYYYOCsBvbDj7TgqcfdSvYEPwwwwAADDDDAAAMMMMAAAwwc3MDH4YenvQB+cOBnTTXVW6LPAAMMMMAAAwwwwAADDCwGhB8G9wIeBhhggAEGGGCAAQYYYIABBpo2IPwAvGngks4l6dQW2oIBBhhggAEGGGCAAQbOamA3/Hh57/rL67OBsXCEAQYYYIABBhhggAEGGGCAAQYObWATfjy/Xvqu6/rOY24P3bFnTfPUW5LNAAMMMMAAAwwwwAADDDCwNrAJP9Y7+BkaBhhggAEGGGCAAQYYYIABBhg4sgHhh6lLZrgwwAADDDDAAAMMMMAAAwww0LQB4QfgTQM/cjKp7JJ1BhhggAEGGGCAAQYYYOA+BoQfwg/hBwMMMMAAAwwwwAADDDDAAANNGxB+AN40cCnpfVJS7agdGWCAAQYYYIABBhhg4MgGhB/CD+EHAwwwwAADDDDAAAMMMMAAA00bEH4A3jTwIyeTyi5ZZ4ABBhhggAEGGGCAAQbuY+Bf8o5M4DEI6C4AAAAASUVORK5CYII=;" vertex="1" parent="1">
          <mxGeometry x="64" y="680" width="877" height="250.11" as="geometry" />
        </mxCell>
      </root>
    </mxGraphModel>
  </diagram>
</mxfile>
